<svg width="230" height="64" viewBox="0 0 230 64" fill="none" xmlns="http://www.w3.org/2000/svg">
<path d="M1.3916 50.8555C0.463867 50.7741 0 50.1963 0 49.1221C0 48.8291 0.0488281 48.5361 0.146484 48.2432C0.602214 46.3063 1.17188 44.402 1.85547 42.5303L4.15039 36.207C4.26432 35.8978 4.33757 35.5804 4.37012 35.2549C4.67936 33.0739 5.40365 31.0394 6.54297 29.1514C7.32422 27.8167 7.99154 26.4251 8.54492 24.9766C11.0026 18.3848 12.2803 14.7633 12.3779 14.1123C12.5895 12.8428 13.0859 12.208 13.8672 12.208C13.9974 12.208 14.1357 12.2324 14.2822 12.2812C14.738 12.4766 14.9658 12.7939 14.9658 13.2334C14.9658 13.6566 14.8844 14.153 14.7217 14.7227C14.6566 15.1296 14.5264 15.5853 14.3311 16.0898C14.1032 16.6921 13.9567 17.3187 13.8916 17.9697L14.0381 17.9941C14.2008 17.9941 14.3636 17.8802 14.5264 17.6523C16.7562 15.2272 18.8232 13.5182 20.7275 12.5254C21.3135 12.2161 21.9238 12.0615 22.5586 12.0615C23.9258 12.1592 24.7477 12.9893 25.0244 14.5518C25.0895 15.1051 25.1221 15.6585 25.1221 16.2119C25.1221 17.0745 25.0488 17.9372 24.9023 18.7998C24.3815 21.9574 23.291 26.0345 21.6309 31.0312C21.9727 30.901 22.2575 30.6488 22.4854 30.2744C23.8363 28.4515 25.415 26.8564 27.2217 25.4893C28.3936 24.6266 29.5817 24.1953 30.7861 24.1953C32.2998 24.1953 33.4554 25.0173 34.2529 26.6611C34.9202 28.1423 35.2702 29.6966 35.3027 31.3242V34.9619C35.2702 35.9548 35.2539 36.9476 35.2539 37.9404C35.2539 39.7308 35.4004 41.5049 35.6934 43.2627C35.8236 44.1742 36.1084 45.0205 36.5479 45.8018C37.1989 46.8434 38.0127 47.3643 38.9893 47.3643C39.5264 47.3643 40.21 47.1689 41.04 46.7783C41.626 46.4691 42.0817 46.3145 42.4072 46.3145C42.749 46.3145 43.0176 46.4528 43.2129 46.7295C43.3268 46.9248 43.3838 47.1283 43.3838 47.3398C43.3838 47.6979 43.1885 48.0641 42.7979 48.4385C41.7399 49.3337 40.4785 49.7812 39.0137 49.7812C38.0371 49.7812 37.1826 49.5534 36.4502 49.0977C34.5459 47.9258 33.4229 45.8343 33.0811 42.8232C32.8044 40.9189 32.666 39.0065 32.666 37.0859L32.7393 33.2529L32.6904 30.958C32.6904 29.835 32.4626 28.7526 32.0068 27.7109C31.7139 26.9622 31.2744 26.5879 30.6885 26.5879C30.3955 26.5879 30.07 26.6774 29.7119 26.8564C26.4242 28.5003 23.0143 32.96 19.4824 40.2354C18.6849 41.7979 18.278 43.4661 18.2617 45.2402V45.4355C18.2617 46.4284 17.8304 46.9248 16.9678 46.9248C16.626 46.9248 16.3411 46.7783 16.1133 46.4854C15.7552 45.9971 15.5762 45.46 15.5762 44.874C15.5762 44.2067 15.7308 43.1243 16.04 41.627C17.0492 37.3138 18.2617 33.0576 19.6777 28.8584C20.3125 26.9704 20.8903 25.0742 21.4111 23.1699C21.9482 21.2493 22.3389 19.2718 22.583 17.2373C22.6481 16.8792 22.6807 16.5374 22.6807 16.2119C22.6807 15.1702 22.4935 14.6494 22.1191 14.6494C21.9076 14.6494 21.4111 14.9017 20.6299 15.4062C19.0511 16.513 17.6432 17.807 16.4062 19.2881C14.2578 21.7458 12.3128 24.3581 10.5713 27.125C10.2783 27.5482 10.0423 28.0039 9.86328 28.4922L8.44727 32.0566C7.01497 35.556 5.49316 39.7064 3.88184 44.5078C3.24707 46.3796 2.92969 47.3317 2.92969 47.3643C2.76693 47.7712 2.68555 48.113 2.68555 48.3896C2.68555 48.6338 2.73438 48.8779 2.83203 49.1221C2.86458 49.236 2.88086 49.3418 2.88086 49.4395C2.88086 49.6673 2.7832 49.9277 2.58789 50.2207C2.26237 50.6439 1.86361 50.8555 1.3916 50.8555ZM48.9355 47.6084C47.7637 47.6084 46.8604 46.876 46.2256 45.4111C45.9489 44.6299 45.8105 43.8324 45.8105 43.0186C45.9408 40.0238 46.8766 37.2568 48.6182 34.7178C49.2041 33.8389 49.9691 33.1634 50.9131 32.6914C51.499 32.4473 52.0443 32.3252 52.5488 32.3252C53.6393 32.3252 54.5671 32.8949 55.332 34.0342C55.6576 34.6038 55.8773 35.2305 55.9912 35.9141C56.0563 36.2884 56.1621 36.5407 56.3086 36.6709C56.5202 36.8825 57.7979 36.9883 60.1416 36.9883L61.1914 36.9395C61.7285 36.9395 62.1273 37.0452 62.3877 37.2568C62.6807 37.501 62.8271 37.8102 62.8271 38.1846C62.8271 38.6403 62.5911 39.0146 62.1191 39.3076C61.6471 39.6006 61.1344 39.7633 60.5811 39.7959L59.1895 39.8203L58.5791 39.8691C57.1468 39.7552 56.3737 39.6982 56.2598 39.6982C56.0319 39.6982 55.8691 39.7715 55.7715 39.918C55.6901 40.0482 55.6006 40.2679 55.5029 40.5771C54.445 43.6859 52.8743 45.8587 50.791 47.0957C50.1074 47.4375 49.4889 47.6084 48.9355 47.6084ZM49.2773 44.5811C49.4238 44.5811 49.6029 44.5078 49.8145 44.3613C51.2142 43.2383 52.2477 41.5537 52.915 39.3076L52.9639 39.0635C52.9639 38.8356 52.8499 38.6647 52.6221 38.5508C51.7106 38.4694 51.027 37.973 50.5713 37.0615C49.9691 37.9404 49.4971 38.9333 49.1553 40.04C48.8135 41.1305 48.6426 42.099 48.6426 42.9453C48.6426 44.0358 48.8542 44.5811 49.2773 44.5811ZM65.6445 47.3154C65.0911 47.3154 64.6842 47.0632 64.4238 46.5586C64.2122 46.054 64.1064 45.5332 64.1064 44.9961L64.1553 42.5303C64.1878 38.8031 64.2936 35.7757 64.4727 33.4482C64.5215 32.9111 64.5622 32.3659 64.5947 31.8125C64.611 31.4544 64.668 31.1289 64.7656 30.8359C64.8796 30.5267 65.1237 30.307 65.498 30.1768C65.6771 30.1117 65.8317 30.0791 65.9619 30.0791C66.4014 30.0791 66.8083 30.4453 67.1826 31.1777C67.1989 31.194 67.2233 31.2103 67.2559 31.2266C67.3047 31.2266 67.3454 31.2347 67.3779 31.251L67.7441 31.1289C68.3301 30.8685 68.8265 30.7383 69.2334 30.7383C70.3564 30.7383 71.276 31.5846 71.9922 33.2773C71.9922 33.3099 72.0003 33.3343 72.0166 33.3506C72.2607 33.8551 72.4805 34.3597 72.6758 34.8643C72.8548 35.4827 73.2617 35.792 73.8965 35.792L74.2383 35.7676C74.7266 35.7676 75.0602 35.9303 75.2393 36.2559C75.3532 36.4349 75.4102 36.6383 75.4102 36.8662C75.4102 37.0778 75.3613 37.2975 75.2637 37.5254C74.987 38.2253 74.6533 38.6322 74.2627 38.7461C73.8883 38.86 73.6035 38.917 73.4082 38.917C73.0013 38.917 72.5781 38.7868 72.1387 38.5264C71.569 38.1195 71.1296 37.6393 70.8203 37.0859C70.5273 36.5163 70.21 35.8571 69.8682 35.1084C69.6729 34.5387 69.3962 34.0993 69.0381 33.79C68.3382 34.3109 67.8174 35.0189 67.4756 35.9141C67.085 36.6465 66.8896 37.3464 66.8896 38.0137L66.9141 38.5508C66.9629 38.7949 66.9873 39.0472 66.9873 39.3076C66.9873 39.568 66.9466 39.918 66.8652 40.3574C66.7839 41.1712 66.7432 41.985 66.7432 42.7988C66.7432 44.0033 66.8001 44.9147 66.9141 45.5332C66.9629 45.6797 66.9873 45.8343 66.9873 45.9971C66.9548 46.6969 66.6048 47.1283 65.9375 47.291L65.6445 47.3154ZM82.2803 48.8779C81.3688 48.8779 80.5957 48.6419 79.9609 48.1699C79.0169 47.4375 78.5449 46.2412 78.5449 44.5811V44.2393C78.5449 43.3766 78.6914 42.4977 78.9844 41.6025C79.4889 39.9098 80.1644 38.2904 81.0107 36.7441C81.4665 35.9141 81.9303 35.499 82.4023 35.499C82.5326 35.499 82.6709 35.5234 82.8174 35.5723C83.3057 35.7676 83.5498 36.1094 83.5498 36.5977C83.5498 37.3626 83.3382 38.0788 82.915 38.7461C81.7106 40.5853 81.1084 42.6198 81.1084 44.8496C81.1084 45.8587 81.4827 46.3633 82.2314 46.3633C82.6546 46.3633 83.2894 46.2087 84.1357 45.8994C85.1611 45.5088 86.1296 45.0042 87.041 44.3857C90.3125 42.3675 93.3154 40.0075 96.0498 37.3057C96.2614 37.0778 96.4811 36.8906 96.709 36.7441C96.9531 36.5814 97.2054 36.5 97.4658 36.5C97.71 36.5163 97.9215 36.5977 98.1006 36.7441C98.2796 36.8906 98.3854 37.0452 98.418 37.208C98.4668 37.3708 98.4912 37.4928 98.4912 37.5742C98.4912 37.9648 98.2389 38.4938 97.7344 39.1611C97.4414 39.5355 97.1077 39.8854 96.7334 40.2109C93.7712 42.929 90.5485 45.3053 87.0654 47.3398C85.9587 47.9909 84.7786 48.4629 83.5254 48.7559C83.0859 48.8372 82.6709 48.8779 82.2803 48.8779ZM83.7207 33.2041C83.5579 33.2041 83.3952 33.1553 83.2324 33.0576C82.5488 32.667 82.1908 32.0811 82.1582 31.2998C82.1582 30.9092 82.2884 30.5999 82.5488 30.3721C82.8092 30.1279 83.1104 30.0059 83.4521 30.0059C83.8753 30.0059 84.1602 30.1523 84.3066 30.4453L84.7705 31.9102C84.7217 32.7728 84.3717 33.2041 83.7207 33.2041ZM113.296 44.9473C112.954 44.9473 112.612 44.931 112.271 44.8984C109.276 44.3451 107.388 42.5954 106.606 39.6494C106.493 38.8682 106.346 38.2253 106.167 37.7207C105.939 37.9811 105.5 38.5264 104.849 39.3564C102.131 42.9046 100.039 44.6787 98.5742 44.6787C98.2161 44.6787 97.8906 44.5892 97.5977 44.4102C96.9629 44.0033 96.6455 43.3034 96.6455 42.3105C96.6455 41.513 96.8164 40.7562 97.1582 40.04C99.2578 35.7106 102.375 33.0332 106.509 32.0078C107.144 31.8776 107.632 31.5602 107.974 31.0557C108.397 30.4697 108.828 30.1768 109.268 30.1768C109.414 30.1768 109.561 30.2093 109.707 30.2744C110.114 30.4535 110.317 30.7952 110.317 31.2998C110.317 31.5114 110.277 31.7311 110.195 31.959C110.13 32.1706 110.098 32.3903 110.098 32.6182C110.098 32.8623 110.146 33.1064 110.244 33.3506C110.309 33.5133 110.342 33.668 110.342 33.8145C110.342 34.2051 110.114 34.498 109.658 34.6934C109.284 34.8561 109.064 35.1165 108.999 35.4746C108.804 36.1582 108.706 36.8337 108.706 37.501C108.706 38.3311 108.861 39.153 109.17 39.9668C109.886 41.7083 111.286 42.5791 113.369 42.5791C114.215 42.5791 115.062 42.4814 115.908 42.2861C119.798 41.4723 123.477 40.0726 126.943 38.0869C128.18 37.3545 128.97 36.9883 129.312 36.9883C129.67 36.9883 129.946 37.1429 130.142 37.4521C130.256 37.6312 130.312 37.8021 130.312 37.9648C130.312 38.5996 129.051 39.5924 126.528 40.9434C122.834 42.8639 118.927 44.1579 114.81 44.8252C114.305 44.9066 113.8 44.9473 113.296 44.9473ZM99.5752 41.6514C99.7217 41.6514 99.8763 41.5456 100.039 41.334C101.829 39.5111 103.433 37.5335 104.849 35.4014L104.873 35.3281C104.873 35.2467 104.775 35.1735 104.58 35.1084C102.399 36.4105 100.698 38.2334 99.4775 40.5771C99.2985 40.9027 99.209 41.1631 99.209 41.3584C99.209 41.5537 99.3311 41.6514 99.5752 41.6514ZM127.808 51.2217C127.368 51.2217 127.01 51.0182 126.733 50.6113C126.603 50.3835 126.538 50.1637 126.538 49.9521C126.538 49.6755 126.636 49.2767 126.831 48.7559C129.468 41.0898 131.649 34.9538 133.374 30.3477C134.969 26.2135 136.662 22.112 138.452 18.043C138.647 17.6035 138.883 17.1803 139.16 16.7734C139.372 16.4967 139.657 16.3584 140.015 16.3584C140.861 16.3584 141.284 16.8955 141.284 17.9697C141.284 18.4417 141.105 18.873 140.747 19.2637C140.438 19.5892 140.218 19.9473 140.088 20.3379L134.546 34.498C134.367 34.8398 134.277 35.1735 134.277 35.499L134.302 35.8652C134.937 35.2793 135.433 34.8398 135.791 34.5469C136.572 33.8796 137.264 33.5459 137.866 33.5459C138.664 33.5459 139.209 33.9691 139.502 34.8154C139.779 35.8083 139.917 36.5977 139.917 37.1836C139.966 37.8997 140.104 38.5996 140.332 39.2832C140.527 39.8203 140.78 40.1947 141.089 40.4062C141.398 40.6178 141.829 40.7236 142.383 40.7236C143.994 40.6423 145.768 39.7633 147.705 38.0869C148.584 37.3545 149.178 36.9883 149.487 36.9883C149.731 36.9883 149.976 37.0941 150.22 37.3057C150.464 37.5173 150.586 37.7777 150.586 38.0869C150.586 38.4287 150.374 38.8438 149.951 39.332C148.372 41.1061 146.452 42.335 144.189 43.0186C143.587 43.1976 142.977 43.2871 142.358 43.2871C140.308 43.2871 138.908 42.4163 138.159 40.6748C137.638 39.4867 137.378 38.4124 137.378 37.4521C137.378 37.1917 137.264 37.0615 137.036 37.0615C136.89 37.0615 136.768 37.1185 136.67 37.2324C135.677 38.3392 134.969 39.1774 134.546 39.7471C132.349 42.693 130.623 45.8913 129.37 49.3418C129.028 50.416 128.654 51.0101 128.247 51.124C128.052 51.1891 127.905 51.2217 127.808 51.2217ZM176.021 50.8555C174.344 50.8555 173.05 50.0498 172.139 48.4385C171.325 46.8109 170.894 45.1019 170.845 43.3115L170.82 41.9932C170.82 38.152 171.699 33.7819 173.457 28.8828C174.84 25.0254 176.639 20.8262 178.853 16.2852C179.406 15.1133 180 13.9902 180.635 12.916C180.879 12.5254 181.245 12.3301 181.733 12.3301C181.978 12.3301 182.197 12.4033 182.393 12.5498C182.653 12.7451 182.783 13.0055 182.783 13.3311L182.759 13.5264C182.694 14.1611 182.474 14.7471 182.1 15.2842C181.839 15.6097 181.595 16.0085 181.367 16.4805C179.202 20.9238 177.306 25.4079 175.679 29.9326C174.1 34.4736 173.311 38.5101 173.311 42.042C173.311 43.9788 173.604 45.6471 174.189 47.0469C174.596 48.0723 175.247 48.585 176.143 48.585C176.501 48.585 176.891 48.5036 177.314 48.3408C179.837 47.3154 182.417 45.0042 185.054 41.4072C188.211 37.3057 190.97 32.9844 193.33 28.4434C194.176 26.7344 194.909 24.9847 195.527 23.1943C195.951 22.0387 196.398 20.8913 196.87 19.752C197.684 17.8965 198.376 16.0003 198.945 14.0635C199.141 13.4775 199.474 12.9893 199.946 12.5986C200.174 12.4033 200.418 12.3057 200.679 12.3057C201.265 12.3057 201.639 12.6149 201.802 13.2334C201.818 13.3636 201.826 13.502 201.826 13.6484C201.826 13.9089 201.785 14.1693 201.704 14.4297C201.216 16.3828 200.581 18.2952 199.8 20.167C199.214 21.5342 198.612 22.8932 197.993 24.2441C195.649 29.2897 193.997 35.0596 193.037 41.5537C192.923 42.2048 192.866 42.8477 192.866 43.4824C192.866 44.5892 193.029 45.696 193.354 46.8027C193.517 47.3398 193.696 47.6572 193.892 47.7549C194.087 47.8363 194.258 47.877 194.404 47.877C194.958 47.877 195.69 47.5921 196.602 47.0225C198.799 45.6878 200.76 44.0765 202.485 42.1885C205.269 39.2425 207.572 35.9792 209.395 32.3984C210.632 30.0872 211.25 28.777 211.25 28.4678C211.25 28.2725 211.006 27.9714 210.518 27.5645C208.711 26.1647 207.808 24.4476 207.808 22.4131C207.808 21.8923 207.873 21.3551 208.003 20.8018C208.589 18.2301 209.655 16.1387 211.201 14.5273C211.738 13.9414 212.373 13.4775 213.105 13.1357C213.529 12.973 213.919 12.8916 214.277 12.8916C215.075 12.8916 215.767 13.2741 216.353 14.0391C216.841 14.6576 217.109 15.3656 217.158 16.1631L217.183 16.9199C217.183 18.8405 216.385 22.0794 214.79 26.6367C214.725 26.7995 214.692 26.9297 214.692 27.0273C214.692 27.2552 214.88 27.4261 215.254 27.54C216.442 27.9632 217.655 28.1748 218.892 28.1748C219.51 28.1748 220.348 28.0853 221.406 27.9062C221.927 27.8411 222.236 27.7923 222.334 27.7598C222.529 27.7272 222.725 27.7109 222.92 27.7109C223.18 27.7109 223.416 27.7923 223.628 27.9551C223.872 28.1667 223.994 28.4027 223.994 28.6631C223.994 29.0537 223.807 29.3548 223.433 29.5664C222.196 30.1686 220.682 30.4697 218.892 30.4697C217.931 30.4697 216.971 30.3558 216.011 30.1279C214.692 29.7861 213.984 29.6152 213.887 29.6152C213.643 29.6152 213.39 29.9001 213.13 30.4697L212.959 30.8604C209.232 38.7217 204.447 44.6136 198.604 48.5361C197.643 49.1872 196.602 49.6836 195.479 50.0254C195.023 50.1393 194.6 50.1963 194.209 50.1963C192.891 50.1963 191.898 49.5208 191.23 48.1699C190.775 47.2422 190.514 46.2738 190.449 45.2646C190.417 44.7438 190.4 44.223 190.4 43.7021C190.4 41.9932 190.612 40.2842 191.035 38.5752C191.084 38.4124 191.108 38.209 191.108 37.9648C191.108 37.7858 191.051 37.5824 190.938 37.3545L189.863 38.8682C187.992 41.5863 186.299 43.7998 184.785 45.5088C182.295 48.3083 179.837 50.0335 177.412 50.6846C176.924 50.7985 176.46 50.8555 176.021 50.8555ZM212.202 25.7334C212.381 25.7008 212.511 25.5788 212.593 25.3672C213.602 22.7793 214.285 20.1182 214.644 17.3838L214.668 17.042C214.668 15.9352 214.465 15.3818 214.058 15.3818C213.911 15.3818 213.74 15.4632 213.545 15.626C211.706 17.2861 210.664 19.4671 210.42 22.1689V22.4863C210.42 23.528 210.778 24.4557 211.494 25.2695C211.771 25.5788 212.007 25.7334 212.202 25.7334ZM225.835 50.4404C225.298 50.4404 224.842 50.2533 224.468 49.8789C224.093 49.5208 223.906 49.0977 223.906 48.6094C223.939 48.0397 224.167 47.5677 224.59 47.1934C225.013 46.8027 225.526 46.583 226.128 46.5342C226.584 46.5342 226.966 46.6807 227.275 46.9736C227.601 47.2666 227.772 47.6247 227.788 48.0479C227.772 48.6501 227.576 49.179 227.202 49.6348C226.828 50.1068 226.372 50.3753 225.835 50.4404Z" fill="#FF5660"/>
<path d="M1.3916 50.8555L1.30422 51.8516L1.34783 51.8555H1.3916V50.8555ZM0.146484 48.2432L1.09517 48.5594L1.10951 48.5164L1.1199 48.4722L0.146484 48.2432ZM1.85547 42.5303L2.79479 42.8733L2.79547 42.8714L1.85547 42.5303ZM4.15039 36.207L3.21204 35.8613L3.21039 35.8659L4.15039 36.207ZM4.37012 35.2549L3.38002 35.1145L3.37713 35.1349L3.37508 35.1554L4.37012 35.2549ZM6.54297 29.1514L7.39923 29.6681L7.40598 29.6565L6.54297 29.1514ZM8.54492 24.9766L9.47911 25.3334L9.48191 25.3259L8.54492 24.9766ZM12.3779 14.1123L11.3915 13.9479L11.3902 13.9559L11.389 13.964L12.3779 14.1123ZM14.2822 12.2812L14.6761 11.3621L14.6379 11.3457L14.5985 11.3326L14.2822 12.2812ZM14.7217 14.7227L13.7602 14.4479L13.7437 14.5055L13.7342 14.5647L14.7217 14.7227ZM14.3311 16.0898L13.3985 15.7288L13.3958 15.736L14.3311 16.0898ZM13.8916 17.9697L12.8966 17.8702L12.8034 18.8021L13.7272 18.9561L13.8916 17.9697ZM14.0381 17.9941L13.8737 18.9805L13.9553 18.9941H14.0381V17.9941ZM14.5264 17.6523L13.7902 16.9755L13.7485 17.0209L13.7126 17.0711L14.5264 17.6523ZM20.7275 12.5254L21.1899 13.4121L21.1943 13.4098L20.7275 12.5254ZM22.5586 12.0615L22.6298 11.0641L22.5943 11.0615H22.5586V12.0615ZM25.0244 14.5518L26.0176 14.4349L26.0142 14.406L26.0091 14.3774L25.0244 14.5518ZM24.9023 18.7998L23.9164 18.6324L23.9157 18.6371L24.9023 18.7998ZM21.6309 31.0312L20.6819 30.716L20.0173 32.716L21.9869 31.9657L21.6309 31.0312ZM22.4854 30.2744L21.6819 29.679L21.6548 29.7156L21.6312 29.7545L22.4854 30.2744ZM27.2217 25.4893L26.6288 24.6838L26.6182 24.6919L27.2217 25.4893ZM34.2529 26.6611L35.1647 26.2504L35.1588 26.2374L35.1526 26.2246L34.2529 26.6611ZM35.3027 31.3242H36.3027V31.3142L36.3025 31.3042L35.3027 31.3242ZM35.3027 34.9619L36.3022 34.9947L36.3027 34.9783V34.9619H35.3027ZM35.6934 43.2627L36.6833 43.1213L36.6817 43.1098L36.6798 43.0983L35.6934 43.2627ZM36.5479 45.8018L35.6763 46.292L35.6876 46.3122L35.6999 46.3318L36.5479 45.8018ZM41.04 46.7783L41.4658 47.6831L41.4865 47.6734L41.5068 47.6627L41.04 46.7783ZM43.2129 46.7295L44.0767 46.2256L44.0548 46.1882L44.0299 46.1528L43.2129 46.7295ZM42.7979 48.4385L43.4438 49.2019L43.4674 49.1819L43.4898 49.1605L42.7979 48.4385ZM36.4502 49.0977L36.9785 48.2486L36.9743 48.246L36.4502 49.0977ZM33.0811 42.8232L34.0747 42.7105L34.0729 42.6949L34.0707 42.6795L33.0811 42.8232ZM32.666 37.0859L31.6662 37.0668L31.666 37.0764V37.0859H32.666ZM32.7393 33.2529L33.7391 33.272L33.7395 33.2518L33.739 33.2317L32.7393 33.2529ZM32.6904 30.958H31.6904V30.9686L31.6907 30.9793L32.6904 30.958ZM32.0068 27.7109L31.0756 28.0753L31.0828 28.0937L31.0907 28.1118L32.0068 27.7109ZM29.7119 26.8564L30.1591 27.7509L29.7119 26.8564ZM19.4824 40.2354L20.3731 40.69L20.3777 40.6811L20.382 40.6721L19.4824 40.2354ZM18.2617 45.2402L17.2617 45.2311V45.2402H18.2617ZM16.1133 46.4854L15.3069 47.0767L15.3152 47.0881L15.3239 47.0993L16.1133 46.4854ZM16.04 41.627L15.0663 41.3991L15.0634 41.4119L15.0607 41.4247L16.04 41.627ZM19.6777 28.8584L20.6253 29.1779L20.6256 29.1771L19.6777 28.8584ZM21.4111 23.1699L20.4481 22.9006L20.4466 22.9061L21.4111 23.1699ZM22.583 17.2373L21.5991 17.0584L21.5937 17.0882L21.5901 17.1182L22.583 17.2373ZM20.6299 15.4062L20.0874 14.5662L20.0714 14.5765L20.0559 14.5874L20.6299 15.4062ZM16.4062 19.2881L17.1591 19.9462L17.1666 19.9378L17.1738 19.9291L16.4062 19.2881ZM10.5713 27.125L11.3935 27.6942L11.4059 27.6762L11.4176 27.6577L10.5713 27.125ZM9.86328 28.4922L10.7926 28.8614L10.7976 28.849L10.8022 28.8364L9.86328 28.4922ZM8.44727 32.0566L9.37279 32.4355L9.37662 32.4258L8.44727 32.0566ZM3.88184 44.5078L4.82886 44.829L4.82987 44.826L3.88184 44.5078ZM2.92969 47.3643L3.85816 47.7356L3.92969 47.5568V47.3643H2.92969ZM2.83203 49.1221L3.79356 48.8474L3.7795 48.7982L3.76051 48.7507L2.83203 49.1221ZM2.58789 50.2207L3.38051 50.8304L3.40116 50.8036L3.41994 50.7754L2.58789 50.2207ZM1.47899 49.8593C1.21267 49.8359 1.1474 49.7596 1.1277 49.7351C1.09008 49.6882 1 49.531 1 49.1221H-1C-1 49.7874 -0.858146 50.4562 -0.431896 50.9871C0.0122643 51.5404 0.642801 51.7936 1.30422 51.8516L1.47899 49.8593ZM1 49.1221C1 48.9423 1.02965 48.7559 1.09517 48.5594L-0.802199 47.9269C-0.931995 48.3163 -1 48.7159 -1 49.1221H1ZM1.1199 48.4722C1.56652 46.5741 2.12479 44.7078 2.79478 42.8733L0.916153 42.1872C0.218959 44.0962 -0.362097 46.0386 -0.826933 48.0141L1.1199 48.4722ZM2.79547 42.8714L5.0904 36.5482L3.21039 35.8659L0.915464 42.1891L2.79547 42.8714ZM5.08873 36.5527C5.23168 36.1647 5.32413 35.7647 5.36515 35.3544L3.37508 35.1554C3.351 35.3961 3.29697 35.6308 3.21205 35.8613L5.08873 36.5527ZM5.36021 35.3953C5.65056 33.3476 6.32924 31.441 7.39916 29.668L5.68678 28.6347C4.47805 30.6377 3.70817 32.8002 3.38002 35.1145L5.36021 35.3953ZM7.40598 29.6565C8.21505 28.2744 8.90614 26.8332 9.47908 25.3334L7.61077 24.6197C7.07693 26.0171 6.43338 27.3591 5.67995 28.6462L7.40598 29.6565ZM9.48191 25.3259C10.7114 22.0282 11.6477 19.4684 12.2895 17.6494C12.6101 16.7405 12.8593 16.0108 13.0353 15.464C13.2007 14.9504 13.328 14.5198 13.3669 14.2606L11.389 13.964C11.3892 13.9625 11.3884 13.9678 11.3857 13.9813C11.383 13.9945 11.379 14.0125 11.3734 14.036C11.362 14.0834 11.3457 14.1457 11.3235 14.2245C11.279 14.3823 11.2155 14.5902 11.1315 14.8511C10.9637 15.3724 10.7216 16.0821 10.4034 16.9839C9.76752 18.7863 8.8361 21.3331 7.60793 24.6272L9.48191 25.3259ZM13.3643 14.2767C13.4574 13.7183 13.5952 13.4299 13.6967 13.3001C13.7408 13.2437 13.77 13.2274 13.7796 13.2226C13.7882 13.2183 13.8113 13.208 13.8672 13.208V11.208C13.1578 11.208 12.552 11.5172 12.1212 12.068C11.7263 12.5731 11.5101 13.2368 11.3915 13.9479L13.3643 14.2767ZM13.8672 13.208C13.8721 13.208 13.903 13.209 13.966 13.2299L14.5985 11.3326C14.3684 11.2559 14.1227 11.208 13.8672 11.208V13.208ZM13.8883 13.2004C13.9932 13.2453 14 13.2732 13.9826 13.249C13.9745 13.2377 13.9685 13.2248 13.9656 13.215C13.9629 13.2063 13.9658 13.2104 13.9658 13.2334H15.9658C15.9658 12.8317 15.8582 12.4321 15.6072 12.0826C15.362 11.741 15.027 11.5125 14.6761 11.3621L13.8883 13.2004ZM13.9658 13.2334C13.9658 13.5349 13.9067 13.9349 13.7602 14.4479L15.6832 14.9974C15.8621 14.3711 15.9658 13.7783 15.9658 13.2334H13.9658ZM13.7342 14.5647C13.6831 14.8845 13.5758 15.2707 13.3985 15.7288L15.2636 16.4508C15.4769 15.8998 15.6301 15.3746 15.7091 14.8806L13.7342 14.5647ZM13.3958 15.736C13.1364 16.4213 12.9702 17.1336 12.8966 17.8702L14.8866 18.0692C14.9432 17.5038 15.0699 16.9628 15.2663 16.4437L13.3958 15.736ZM13.7272 18.9561L13.8737 18.9805L14.2025 17.0077L14.056 16.9833L13.7272 18.9561ZM14.0381 18.9941C14.6996 18.9941 15.1228 18.5377 15.3401 18.2336L13.7126 17.0711C13.6724 17.1274 13.6676 17.1183 13.7088 17.0895C13.7578 17.0551 13.8727 16.9941 14.0381 16.9941V18.9941ZM15.2625 18.3292C17.4512 15.9487 19.4279 14.3307 21.1898 13.4121L20.2652 11.6387C18.2186 12.7057 16.0611 14.5057 13.7902 16.9755L15.2625 18.3292ZM21.1943 13.4098C21.6429 13.173 22.0937 13.0615 22.5586 13.0615V11.0615C21.7539 11.0615 20.9841 11.2593 20.2608 11.641L21.1943 13.4098ZM22.4873 13.059C22.9735 13.0937 23.2782 13.2472 23.4899 13.4609C23.7148 13.6881 23.9244 14.0749 24.0397 14.7261L26.0091 14.3774C25.8477 13.4661 25.5081 12.6567 24.911 12.0537C24.3007 11.4374 23.5108 11.127 22.6298 11.0641L22.4873 13.059ZM24.0313 14.6686C24.0918 15.1835 24.1221 15.6978 24.1221 16.2119H26.1221C26.1221 15.6192 26.0872 15.0268 26.0176 14.4349L24.0313 14.6686ZM24.1221 16.2119C24.1221 17.0176 24.0537 17.8243 23.9165 18.6324L25.8882 18.9672C26.044 18.0501 26.1221 17.1314 26.1221 16.2119H24.1221ZM23.9157 18.6371C23.4071 21.7206 22.3346 25.7416 20.6819 30.716L22.5799 31.3465C24.2475 26.3274 25.356 22.1941 25.889 18.9626L23.9157 18.6371ZM21.9869 31.9657C22.575 31.7417 23.0199 31.3195 23.3396 30.7944L21.6312 29.7545C21.4951 29.978 21.3704 30.0604 21.2749 30.0968L21.9869 31.9657ZM23.2888 30.8698C24.5831 29.1233 26.0945 27.5963 27.8251 26.2867L26.6182 24.6919C24.7355 26.1166 23.0895 27.7797 21.6819 29.679L23.2888 30.8698ZM27.8145 26.2946C28.8512 25.5315 29.8364 25.1953 30.7861 25.1953V23.1953C29.327 23.1953 27.9359 23.7218 26.6289 24.6839L27.8145 26.2946ZM30.7861 25.1953C31.35 25.1953 31.8116 25.3444 32.2085 25.6267C32.6157 25.9163 33.0071 26.3843 33.3532 27.0976L35.1526 26.2246C34.7012 25.2941 34.1161 24.5292 33.3677 23.9969C32.6089 23.4572 31.7359 23.1953 30.7861 23.1953V25.1953ZM33.3412 27.0719C33.953 28.4298 34.2731 29.8512 34.3029 31.3442L36.3025 31.3042C36.2673 29.542 35.8875 27.8547 35.1647 26.2504L33.3412 27.0719ZM34.3027 31.3242V34.9619H36.3027V31.3242H34.3027ZM34.3033 34.9291C34.2704 35.9329 34.2539 36.9367 34.2539 37.9404H36.2539C36.2539 36.9585 36.27 35.9766 36.3022 34.9947L34.3033 34.9291ZM34.2539 37.9404C34.2539 39.7856 34.4049 41.6147 34.707 43.4271L36.6798 43.0983C36.3959 41.3951 36.2539 39.676 36.2539 37.9404H34.2539ZM34.7034 43.4041C34.8506 44.4348 35.1744 45.3999 35.6763 46.292L37.4194 45.3115C37.0424 44.6411 36.7965 43.9135 36.6833 43.1213L34.7034 43.4041ZM35.6999 46.3318C36.4797 47.5795 37.5771 48.3643 38.9893 48.3643V46.3643C38.4483 46.3643 37.9181 46.1074 37.3959 45.2718L35.6999 46.3318ZM38.9893 48.3643C39.7429 48.3643 40.5841 48.0981 41.4658 47.6831L40.6142 45.8735C39.8358 46.2398 39.3099 46.3643 38.9893 46.3643V48.3643ZM41.5068 47.6627C42.0686 47.3662 42.3403 47.3145 42.4072 47.3145V45.3145C41.8231 45.3145 41.1834 45.5719 40.5733 45.8939L41.5068 47.6627ZM42.4072 47.3145C42.4251 47.3145 42.4313 47.3162 42.4288 47.3157C42.4276 47.3154 42.4248 47.3147 42.4207 47.3132C42.4166 47.3117 42.412 47.3097 42.407 47.3072C42.4021 47.3046 42.3976 47.3019 42.3937 47.2993C42.3899 47.2966 42.3873 47.2944 42.3859 47.2932C42.3829 47.2905 42.3868 47.2933 42.3959 47.3062L44.0299 46.1528C43.6451 45.6078 43.0704 45.3145 42.4072 45.3145V47.3145ZM42.3491 47.2334C42.3802 47.2866 42.3838 47.3175 42.3838 47.3398H44.3838C44.3838 46.939 44.2735 46.563 44.0767 46.2256L42.3491 47.2334ZM42.3838 47.3398C42.3838 47.3126 42.3995 47.4352 42.1059 47.7165L43.4898 49.1605C43.9774 48.6931 44.3838 48.0832 44.3838 47.3398H42.3838ZM42.1519 47.6751C41.2854 48.4083 40.2566 48.7812 39.0137 48.7812V50.7812C40.7004 50.7812 42.1944 50.259 43.4438 49.2019L42.1519 47.6751ZM39.0137 48.7812C38.1986 48.7812 37.5322 48.5931 36.9785 48.2486L35.9219 49.9467C36.8331 50.5137 37.8757 50.7812 39.0137 50.7812V48.7812ZM36.9743 48.246C35.4173 47.2878 34.395 45.5322 34.0747 42.7105L32.0874 42.936C32.4507 46.1364 33.6745 48.5637 35.9261 49.9493L36.9743 48.246ZM34.0707 42.6795C33.8009 40.8227 33.666 38.9583 33.666 37.0859H31.666C31.666 39.0547 31.8078 41.0152 32.0914 42.967L34.0707 42.6795ZM33.6658 37.105L33.7391 33.272L31.7394 33.2338L31.6662 37.0668L33.6658 37.105ZM33.739 33.2317L33.6902 30.9367L31.6907 30.9793L31.7395 33.2742L33.739 33.2317ZM33.6904 30.958C33.6904 29.6952 33.4333 28.4766 32.923 27.3101L31.0907 28.1118C31.4918 29.0286 31.6904 29.9747 31.6904 30.958H33.6904ZM32.9381 27.3465C32.7538 26.8757 32.4908 26.4352 32.106 26.1074C31.7024 25.7636 31.2152 25.5879 30.6885 25.5879V27.5879C30.7477 27.5879 30.7732 27.5993 30.8091 27.6299C30.8637 27.6764 30.9669 27.7975 31.0756 28.0753L32.9381 27.3465ZM30.6885 25.5879C30.1941 25.5879 29.7134 25.7377 29.2647 25.962L30.1591 27.7509C30.4266 27.6171 30.5969 27.5879 30.6885 27.5879V25.5879ZM29.2647 25.962C27.432 26.8784 25.6474 28.5339 23.8943 30.8267C22.1352 33.1273 20.3664 36.1246 18.5828 39.7986L20.382 40.6721C22.1303 37.0707 23.8324 34.2005 25.4831 32.0415C27.1399 29.8747 28.7041 28.4784 30.1591 27.7509L29.2647 25.962ZM18.5917 39.7807C17.7229 41.4829 17.2794 43.3039 17.2618 45.2311L19.2617 45.2494C19.2765 43.6284 19.6468 42.1128 20.3731 40.69L18.5917 39.7807ZM17.2617 45.2402V45.4355H19.2617V45.2402H17.2617ZM17.2617 45.4355C17.2617 45.8096 17.1774 45.9034 17.1834 45.8966C17.1888 45.8903 17.1929 45.8915 17.1757 45.8981C17.1524 45.907 17.0899 45.9248 16.9678 45.9248V47.9248C17.5927 47.9248 18.2325 47.7385 18.6931 47.2084C19.1303 46.7051 19.2617 46.0543 19.2617 45.4355H17.2617ZM16.9678 45.9248C16.9542 45.9248 16.949 45.9234 16.9497 45.9236C16.9508 45.9238 16.9532 45.9246 16.9552 45.9257C16.9611 45.9287 16.9414 45.9212 16.9026 45.8714L15.3239 47.0993C15.7225 47.6118 16.2881 47.9248 16.9678 47.9248V45.9248ZM16.9197 45.894C16.6829 45.5711 16.5762 45.2398 16.5762 44.874H14.5762C14.5762 45.6801 14.8275 46.423 15.3069 47.0767L16.9197 45.894ZM16.5762 44.874C16.5762 44.3178 16.7109 43.3229 17.0194 41.8292L15.0607 41.4247C14.7507 42.9257 14.5762 44.0956 14.5762 44.874H16.5762ZM17.0137 41.8548C18.0156 37.5726 19.2195 33.347 20.6253 29.1779L18.7302 28.5389C17.304 32.7682 16.0827 37.055 15.0663 41.3991L17.0137 41.8548ZM20.6256 29.1771C21.2664 27.2711 21.8498 25.3566 22.3757 23.4337L20.4466 22.9061C19.9308 24.7918 19.3586 26.6697 18.7299 28.5397L20.6256 29.1771ZM22.3742 23.4392C22.9254 21.4681 23.3258 19.4403 23.5759 17.3564L21.5901 17.1182C21.3519 19.1033 20.9711 21.0306 20.4481 22.9006L22.3742 23.4392ZM23.5669 17.4162C23.6415 17.0059 23.6807 16.604 23.6807 16.2119H21.6807C21.6807 16.4709 21.6547 16.7526 21.5991 17.0584L23.5669 17.4162ZM23.6807 16.2119C23.6807 15.6589 23.6346 15.1282 23.4814 14.7018C23.4029 14.4834 23.2729 14.2255 23.0449 14.0139C22.7944 13.7816 22.4713 13.6494 22.1191 13.6494V15.6494C21.9542 15.6494 21.7948 15.5823 21.6848 15.4802C21.597 15.3989 21.5841 15.3362 21.5992 15.3782C21.6123 15.4148 21.6348 15.4982 21.6527 15.6473C21.6701 15.7928 21.6807 15.9794 21.6807 16.2119H23.6807ZM22.1191 13.6494C21.8957 13.6494 21.6975 13.7098 21.5714 13.7547C21.4286 13.8056 21.281 13.873 21.1351 13.9471C20.8427 14.0957 20.4905 14.3058 20.0874 14.5662L21.1724 16.2463C21.5505 16.0021 21.8372 15.8338 22.0412 15.7301C22.1435 15.6781 22.2085 15.6509 22.2427 15.6387C22.2936 15.6206 22.2368 15.6494 22.1191 15.6494V13.6494ZM20.0559 14.5874C18.405 15.7447 16.932 17.0985 15.6387 18.6471L17.1738 19.9291C18.3544 18.5154 19.6972 17.2813 21.2039 16.2251L20.0559 14.5874ZM15.6534 18.6299C13.4705 21.127 11.4943 23.7813 9.72497 26.5923L11.4176 27.6577C13.1314 24.9349 15.0451 22.3645 17.1591 19.9462L15.6534 18.6299ZM9.7491 26.5558C9.40734 27.0494 9.13233 27.5809 8.92441 28.1479L10.8022 28.8364C10.9523 28.427 11.1493 28.0469 11.3935 27.6942L9.7491 26.5558ZM8.93393 28.123L7.51791 31.6874L9.37662 32.4258L10.7926 28.8614L8.93393 28.123ZM7.52179 31.6778C6.07912 35.2025 4.54985 39.3741 2.9338 44.1897L4.82987 44.826C6.43648 40.0386 7.95083 35.9094 9.37274 32.4354L7.52179 31.6778ZM2.93481 44.1866C2.6173 45.1229 2.37858 45.8309 2.21904 46.3095C2.13942 46.5484 2.07865 46.7327 2.03741 46.8606C2.01704 46.9239 1.99994 46.9779 1.98735 47.0196C1.98135 47.0394 1.97418 47.0637 1.96773 47.0876C1.96472 47.0988 1.95938 47.1191 1.95404 47.1433C1.95142 47.1552 1.94698 47.1762 1.94276 47.2023C1.94025 47.2178 1.92969 47.2819 1.92969 47.3643H3.92969C3.92969 47.4456 3.91928 47.5082 3.91708 47.5218C3.91317 47.546 3.9092 47.5646 3.90719 47.5737C3.9031 47.5923 3.89961 47.6052 3.89909 47.6071C3.89759 47.6127 3.89786 47.6113 3.90178 47.5983C3.90902 47.5744 3.92169 47.5341 3.94098 47.4742C3.97909 47.356 4.03733 47.1792 4.11641 46.942C4.27425 46.4684 4.51161 45.7645 4.82886 44.829L2.93481 44.1866ZM2.00121 46.9929C1.8156 47.4569 1.68555 47.9334 1.68555 48.3896H3.68555C3.68555 48.2925 3.71825 48.0854 3.85816 47.7356L2.00121 46.9929ZM1.68555 48.3896C1.68555 48.7705 1.76232 49.1404 1.90355 49.4935L3.76051 48.7507C3.70643 48.6155 3.68555 48.4971 3.68555 48.3896H1.68555ZM1.87051 49.3968C1.88277 49.4397 1.88086 49.452 1.88086 49.4395H3.88086C3.88086 49.2316 3.8464 49.0323 3.79356 48.8474L1.87051 49.3968ZM1.88086 49.4395C1.88086 49.4103 1.88701 49.4126 1.87129 49.4545C1.85531 49.4971 1.82172 49.5672 1.75584 49.666L3.41994 50.7754C3.6694 50.4012 3.88086 49.9453 3.88086 49.4395H1.88086ZM1.79527 49.611C1.63076 49.8249 1.50952 49.8555 1.3916 49.8555V51.8555C2.2177 51.8555 2.89398 51.4629 3.38051 50.8304L1.79527 49.611ZM46.2256 45.4111L45.283 45.745L45.2944 45.7773L45.308 45.8087L46.2256 45.4111ZM45.8105 43.0186L44.8115 42.9751L44.8105 42.9968V43.0186H45.8105ZM48.6182 34.7178L49.4429 35.2835L49.4502 35.2725L48.6182 34.7178ZM50.9131 32.6914L50.5285 31.7683L50.4967 31.7816L50.4659 31.797L50.9131 32.6914ZM55.332 34.0342L56.2003 33.538L56.1824 33.5067L56.1623 33.4767L55.332 34.0342ZM55.9912 35.9141L55.0048 36.0785L55.006 36.0854L55.9912 35.9141ZM56.3086 36.6709L57.0157 35.9638L56.9949 35.943L56.973 35.9235L56.3086 36.6709ZM60.1416 36.9883V37.9883H60.1648L60.1881 37.9872L60.1416 36.9883ZM61.1914 36.9395V35.9395H61.1682L61.1449 35.9405L61.1914 36.9395ZM62.3877 37.2568L63.0279 36.4886L63.0183 36.4807L62.3877 37.2568ZM60.5811 39.7959L60.5986 40.7957L60.6192 40.7954L60.6398 40.7942L60.5811 39.7959ZM59.1895 39.8203L59.1719 38.8205L59.1408 38.821L59.1097 38.8235L59.1895 39.8203ZM58.5791 39.8691L58.4998 40.866L58.5793 40.8723L58.6588 40.866L58.5791 39.8691ZM55.7715 39.918L54.9394 39.3633L54.9313 39.3755L54.9235 39.388L55.7715 39.918ZM55.5029 40.5771L56.4496 40.8993L56.4532 40.8888L56.4565 40.8783L55.5029 40.5771ZM50.791 47.0957L51.2382 47.9901L51.2705 47.974L51.3016 47.9556L50.791 47.0957ZM49.8145 44.3613L50.3837 45.1835L50.4127 45.1634L50.4403 45.1413L49.8145 44.3613ZM52.915 39.3076L53.8736 39.5924L53.8867 39.5486L53.8956 39.5037L52.915 39.3076ZM52.9639 39.0635L53.9444 39.2596L53.9639 39.1625V39.0635H52.9639ZM52.6221 38.5508L53.0693 37.6564L52.8998 37.5716L52.711 37.5547L52.6221 38.5508ZM50.5713 37.0615L51.4657 36.6143L50.7062 35.0954L49.7464 36.4963L50.5713 37.0615ZM49.1553 40.04L50.1095 40.3391L50.1107 40.3351L49.1553 40.04ZM48.9355 46.6084C48.3098 46.6084 47.6878 46.2705 47.1431 45.0135L45.308 45.8087C46.0329 47.4815 47.2175 48.6084 48.9355 48.6084V46.6084ZM47.1682 45.0773C46.9288 44.4012 46.8105 43.7165 46.8105 43.0186H44.8105C44.8105 43.9482 44.969 44.8585 45.283 45.745L47.1682 45.0773ZM46.8096 43.062C46.9315 40.2594 47.8041 37.6726 49.4428 35.2834L47.7935 34.1521C45.9492 36.8411 44.9501 39.7881 44.8115 42.9751L46.8096 43.062ZM49.4502 35.2725C49.9397 34.5382 50.5721 33.9799 51.3603 33.5858L50.4659 31.797C49.3661 32.3469 48.4685 33.1395 47.7861 34.1631L49.4502 35.2725ZM51.2977 33.6145C51.7921 33.4085 52.2056 33.3252 52.5488 33.3252V31.3252C51.8829 31.3252 51.206 31.486 50.5285 31.7683L51.2977 33.6145ZM52.5488 33.3252C53.2194 33.3252 53.8684 33.6482 54.5018 34.5916L56.1623 33.4767C55.2658 32.1415 54.0592 31.3252 52.5488 31.3252V33.3252ZM54.4638 34.5303C54.7274 34.9916 54.9092 35.5049 55.0048 36.0785L56.9776 35.7497C56.8453 34.956 56.5877 34.2161 56.2003 33.538L54.4638 34.5303ZM55.006 36.0854C55.0787 36.5037 55.2304 37.0504 55.6442 37.4183L56.973 35.9235C57.0113 35.9576 57.0325 35.9867 57.0411 35.9998C57.0496 36.0126 57.0485 36.0138 57.0416 35.9973C57.0265 35.9613 57.0007 35.8822 56.9764 35.7427L55.006 36.0854ZM55.6015 37.378C55.7727 37.5492 55.9669 37.6353 56.0768 37.6778C56.2037 37.727 56.336 37.7616 56.4587 37.7878C56.705 37.8403 57.0057 37.8776 57.343 37.9055C58.023 37.9618 58.9607 37.9883 60.1416 37.9883V35.9883C58.9788 35.9883 58.1057 35.9618 57.5081 35.9123C57.2066 35.8874 57.0017 35.8586 56.8756 35.8317C56.8122 35.8182 56.7916 35.8099 56.799 35.8128C56.8038 35.8146 56.8264 35.8235 56.8594 35.8425C56.8907 35.8605 56.9502 35.8983 57.0157 35.9638L55.6015 37.378ZM60.1881 37.9872L61.2379 37.9384L61.1449 35.9405L60.0951 35.9894L60.1881 37.9872ZM61.1914 37.9395C61.3979 37.9395 61.5419 37.9602 61.6369 37.9854C61.7301 38.0101 61.7589 38.0344 61.7571 38.033L63.0183 36.4807C62.5002 36.0598 61.8292 35.9395 61.1914 35.9395V37.9395ZM61.7475 38.0251C61.7954 38.0649 61.8092 38.0908 61.8135 38.1C61.8176 38.1086 61.8271 38.1314 61.8271 38.1846H63.8271C63.8271 37.5071 63.5439 36.9186 63.0279 36.4886L61.7475 38.0251ZM61.8271 38.1846C61.8271 38.2296 61.8184 38.2513 61.8042 38.2738C61.785 38.3043 61.731 38.3716 61.5918 38.458L62.6465 40.1573C63.3378 39.7282 63.8271 39.0657 63.8271 38.1846H61.8271ZM61.5918 38.458C61.2609 38.6634 60.9092 38.7749 60.5223 38.7976L60.6398 40.7942C61.3597 40.7518 62.0334 40.5378 62.6465 40.1573L61.5918 38.458ZM60.5635 38.7961L59.1719 38.8205L59.207 40.8202L60.5986 40.7957L60.5635 38.7961ZM59.1097 38.8235L58.4994 38.8723L58.6588 40.866L59.2692 40.8171L59.1097 38.8235ZM58.6584 38.8723C57.264 38.7614 56.4261 38.6982 56.2598 38.6982V40.6982C56.249 40.6982 56.2824 40.699 56.4047 40.7069C56.511 40.7137 56.6595 40.7241 56.8516 40.7383C57.2352 40.7665 57.7843 40.8091 58.4998 40.866L58.6584 38.8723ZM56.2598 38.6982C55.8078 38.6982 55.2763 38.8579 54.9394 39.3633L56.6035 40.4727C56.5466 40.558 56.4646 40.6257 56.3772 40.6651C56.2991 40.7002 56.2496 40.6982 56.2598 40.6982V38.6982ZM54.9235 39.388C54.7709 39.6322 54.6508 39.9548 54.5493 40.276L56.4565 40.8783C56.4999 40.7408 56.5378 40.6354 56.5694 40.5577C56.6029 40.4756 56.6208 40.4458 56.6195 40.448L54.9235 39.388ZM54.5562 40.255C53.5477 43.2187 52.0962 45.1577 50.2805 46.2358L51.3016 47.9556C53.6525 46.5597 55.3423 44.1531 56.4496 40.8993L54.5562 40.255ZM50.3438 46.2013C49.7491 46.4986 49.2861 46.6084 48.9355 46.6084V48.6084C49.6918 48.6084 50.4657 48.3764 51.2382 47.9901L50.3438 46.2013ZM49.2773 45.5811C49.7302 45.5811 50.1164 45.3685 50.3837 45.1835L49.2452 43.5391C49.2142 43.5606 49.1897 43.5757 49.1716 43.5859C49.1533 43.5962 49.1439 43.6002 49.1429 43.6006C49.1417 43.601 49.1524 43.5965 49.1738 43.5917C49.1954 43.5868 49.2308 43.5811 49.2773 43.5811V45.5811ZM50.4403 45.1413C52.0408 43.8571 53.1659 41.9745 53.8736 39.5924L51.9565 39.0228C51.3295 41.1329 50.3875 42.6194 49.1887 43.5813L50.4403 45.1413ZM53.8956 39.5037L53.9444 39.2596L51.9833 38.8674L51.9345 39.1115L53.8956 39.5037ZM53.9639 39.0635C53.9639 38.7746 53.8888 38.4771 53.7105 38.2097C53.5363 37.9485 53.3018 37.7726 53.0693 37.6564L52.1749 39.4452C52.1702 39.4429 52.1066 39.4094 52.0464 39.3191C51.982 39.2226 51.9639 39.1245 51.9639 39.0635H53.9639ZM52.711 37.5547C52.1894 37.5082 51.7873 37.2576 51.4657 36.6143L49.6769 37.5087C50.2667 38.6884 51.2318 39.4306 52.5331 39.5468L52.711 37.5547ZM49.7464 36.4963C49.0826 37.4651 48.5687 38.5504 48.1998 39.745L50.1107 40.3351C50.4254 39.3161 50.8556 38.4158 51.3962 37.6268L49.7464 36.4963ZM48.201 39.741C47.8388 40.8967 47.6426 41.9691 47.6426 42.9453H49.6426C49.6426 42.2289 49.7882 41.3644 50.1095 40.3391L48.201 39.741ZM47.6426 42.9453C47.6426 43.5262 47.6949 44.0853 47.869 44.5339C47.959 44.7659 48.1042 45.028 48.348 45.2374C48.611 45.4633 48.9355 45.5811 49.2773 45.5811V43.5811C49.4076 43.5811 49.547 43.6307 49.6512 43.7203C49.7364 43.7934 49.7493 43.851 49.7335 43.8103C49.719 43.7728 49.694 43.687 49.674 43.5327C49.6545 43.3818 49.6426 43.1878 49.6426 42.9453H47.6426ZM65.6445 47.3154V48.3154H65.6861L65.7276 48.312L65.6445 47.3154ZM64.4238 46.5586L63.5016 46.9453L63.517 46.9819L63.5352 47.0172L64.4238 46.5586ZM64.1064 44.9961L63.1066 44.9763L63.1064 44.9862V44.9961H64.1064ZM64.1553 42.5303L65.1551 42.5501L65.1552 42.539L64.1553 42.5303ZM64.4727 33.4482L63.4767 33.3577L63.4756 33.3715L64.4727 33.4482ZM64.5947 31.8125L65.5931 31.8712L65.5937 31.8579L64.5947 31.8125ZM64.7656 30.8359L63.8273 30.4902L63.8219 30.5049L63.8169 30.5197L64.7656 30.8359ZM65.498 30.1768L65.8266 31.1213L65.8398 31.1166L65.498 30.1768ZM67.1826 31.1777L66.2922 31.6328L66.364 31.7733L66.4755 31.8848L67.1826 31.1777ZM67.2559 31.2266L66.8086 32.121L67.0198 32.2266H67.2559V31.2266ZM67.3779 31.251L66.9307 32.1454L67.3012 32.3306L67.6942 32.1997L67.3779 31.251ZM67.7441 31.1289L68.0604 32.0776L68.1062 32.0623L68.1503 32.0427L67.7441 31.1289ZM71.9922 33.2773H72.9922V33.0745L72.9132 32.8877L71.9922 33.2773ZM72.0166 33.3506L72.9168 32.915L72.8432 32.7629L72.7237 32.6435L72.0166 33.3506ZM72.6758 34.8643L73.6363 34.5862L73.6242 34.5441L73.6084 34.5033L72.6758 34.8643ZM73.8965 35.792V36.792H73.9322L73.9677 36.7895L73.8965 35.792ZM74.2383 35.7676V34.7676H74.2026L74.167 34.7701L74.2383 35.7676ZM75.2393 36.2559L74.363 36.7378L74.3784 36.7658L74.3956 36.7927L75.2393 36.2559ZM75.2637 37.5254L74.3445 37.1315L74.3389 37.1445L74.3337 37.1577L75.2637 37.5254ZM74.2627 38.7461L73.9827 37.786L73.9715 37.7894L74.2627 38.7461ZM72.1387 38.5264L71.5574 39.3401L71.5922 39.3649L71.6289 39.3867L72.1387 38.5264ZM70.8203 37.0859L69.931 37.5433L69.9389 37.5587L69.9474 37.5738L70.8203 37.0859ZM69.8682 35.1084L68.9222 35.4327L68.9381 35.4791L68.9585 35.5237L69.8682 35.1084ZM69.0381 33.79L69.6917 33.0332L69.0846 32.5089L68.4411 32.9878L69.0381 33.79ZM67.4756 35.9141L68.3579 36.3847L68.3874 36.3293L68.4098 36.2708L67.4756 35.9141ZM66.8896 38.0137H65.8896V38.0364L65.8907 38.0591L66.8896 38.0137ZM66.9141 38.5508L65.9151 38.5962L65.9185 38.6722L65.9335 38.7469L66.9141 38.5508ZM66.8652 40.3574L65.882 40.1753L65.8744 40.2164L65.8702 40.2579L66.8652 40.3574ZM66.9141 45.5332L65.9306 45.7144L65.9433 45.7831L65.9654 45.8494L66.9141 45.5332ZM66.9873 45.9971L67.9862 46.0435L67.9873 46.0203V45.9971H66.9873ZM65.9375 47.291L66.0205 48.2876L66.0985 48.2811L66.1745 48.2625L65.9375 47.291ZM65.6445 46.3154C65.5245 46.3154 65.4731 46.2898 65.4513 46.2763C65.428 46.2619 65.3753 46.2216 65.3124 46.1L63.5352 47.0172C63.7328 47.4001 64.0137 47.7383 64.3974 47.9761C64.7825 48.2149 65.2112 48.3154 65.6445 48.3154V46.3154ZM65.346 46.1719C65.1848 45.7874 65.1064 45.3979 65.1064 44.9961H63.1064C63.1064 45.6685 63.2397 46.3206 63.5016 46.9453L65.346 46.1719ZM65.1062 45.0159L65.1551 42.5501L63.1555 42.5105L63.1066 44.9763L65.1062 45.0159ZM65.1552 42.539C65.1877 38.8228 65.2931 35.8206 65.4697 33.5249L63.4756 33.3715C63.2941 35.7308 63.188 38.7833 63.1553 42.5215L65.1552 42.539ZM65.4686 33.5388C65.5184 32.9908 65.5598 32.4349 65.593 31.8712L63.5965 31.7538C63.5645 32.2968 63.5246 32.8315 63.4768 33.3577L65.4686 33.5388ZM65.5937 31.8579C65.6064 31.5776 65.6501 31.3449 65.7143 31.1522L63.8169 30.5197C63.6859 30.9129 63.6156 31.3313 63.5958 31.7671L65.5937 31.8579ZM65.704 31.1816C65.7054 31.1777 65.7056 31.1785 65.7036 31.1814C65.7016 31.1843 65.7007 31.1847 65.7031 31.1825C65.7081 31.1781 65.7397 31.1515 65.8266 31.1213L65.1695 29.2323C64.5758 29.4388 64.0658 29.8428 63.8273 30.4902L65.704 31.1816ZM65.8398 31.1166C65.8937 31.0969 65.9313 31.0869 65.9543 31.0821C65.9777 31.0771 65.9789 31.0791 65.9619 31.0791V29.0791C65.6745 29.0791 65.3988 29.1488 65.1563 29.237L65.8398 31.1166ZM65.9619 31.0791C65.878 31.0791 65.8609 31.0369 65.9277 31.0971C66.0067 31.1682 66.1354 31.3261 66.2922 31.6328L68.0731 30.7226C67.6773 29.9482 67.0195 29.0791 65.9619 29.0791V31.0791ZM66.4755 31.8848C66.5987 32.0081 66.729 32.0812 66.8086 32.121L67.7031 30.3321C67.7155 30.3383 67.7385 30.3506 67.7678 30.3701C67.7963 30.3891 67.8407 30.4216 67.8897 30.4706L66.4755 31.8848ZM67.2559 32.2266C67.2 32.2266 67.0761 32.2181 66.9307 32.1454L67.8251 30.3566C67.6146 30.2513 67.4093 30.2266 67.2559 30.2266V32.2266ZM67.6942 32.1997L68.0604 32.0776L67.4279 30.1802L67.0617 30.3023L67.6942 32.1997ZM68.1503 32.0427C68.674 31.81 69.0238 31.7383 69.2334 31.7383V29.7383C68.6292 29.7383 67.9862 29.927 67.338 30.2151L68.1503 32.0427ZM69.2334 31.7383C69.7323 31.7383 70.4013 32.0836 71.0712 33.667L72.9132 32.8877C72.1508 31.0857 70.9806 29.7383 69.2334 29.7383V31.7383ZM70.9922 33.2773C70.9922 33.464 71.0395 33.7877 71.3095 34.0577L72.7237 32.6435C72.9611 32.8809 72.9922 33.1558 72.9922 33.2773H70.9922ZM71.1164 33.7861C71.3492 34.2672 71.558 34.7469 71.7432 35.2253L73.6084 34.5033C73.4029 33.9725 73.1723 33.4431 72.9168 32.915L71.1164 33.7861ZM71.7152 35.1423C71.8488 35.6037 72.0955 36.0411 72.5102 36.3562C72.9261 36.6724 73.4144 36.792 73.8965 36.792V34.792C73.8184 34.792 73.7716 34.7824 73.7477 34.7754C73.736 34.7719 73.7291 34.7688 73.7257 34.7671C73.7225 34.7655 73.721 34.7644 73.7203 34.7639C73.7196 34.7634 73.7178 34.7619 73.7147 34.7585C73.7115 34.7549 73.7058 34.748 73.6983 34.7361C73.683 34.712 73.6594 34.6657 73.6363 34.5862L71.7152 35.1423ZM73.9677 36.7895L74.3095 36.765L74.167 34.7701L73.8252 34.7945L73.9677 36.7895ZM74.2383 36.7676C74.3764 36.7676 74.4221 36.7912 74.4163 36.7884C74.412 36.7863 74.4001 36.7795 74.3863 36.7664C74.3726 36.7533 74.3652 36.7418 74.363 36.7378L76.1155 35.7739C75.705 35.0276 74.9589 34.7676 74.2383 34.7676V36.7676ZM74.3956 36.7927C74.3998 36.7994 74.4102 36.8139 74.4102 36.8662H76.4102C76.4102 36.4628 76.3065 36.0704 76.0829 35.719L74.3956 36.7927ZM74.4102 36.8662C74.4102 36.9212 74.3979 37.007 74.3445 37.1315L76.1828 37.9193C76.3248 37.5881 76.4102 37.2344 76.4102 36.8662H74.4102ZM74.3337 37.1577C74.2185 37.4491 74.1122 37.6244 74.0326 37.7214C73.9564 37.8144 73.9349 37.8 73.9827 37.7861L74.5427 39.7061C75.4051 39.4546 75.8939 38.6512 76.1936 37.8931L74.3337 37.1577ZM73.9715 37.7894C73.6168 37.8974 73.4491 37.917 73.4082 37.917V39.917C73.7579 39.917 74.1599 39.8227 74.5539 39.7028L73.9715 37.7894ZM73.4082 37.917C73.2211 37.917 72.9726 37.8581 72.6485 37.6661L71.6289 39.3867C72.1837 39.7154 72.7815 39.917 73.4082 39.917V37.917ZM72.7199 37.7126C72.2577 37.3825 71.9233 37.0097 71.6933 36.5981L69.9474 37.5738C70.3358 38.2689 70.8803 38.8565 71.5574 39.3401L72.7199 37.7126ZM71.7096 36.6286C71.4254 36.076 71.1149 35.4314 70.7779 34.6931L68.9585 35.5237C69.305 36.2828 69.6293 36.9565 69.931 37.5433L71.7096 36.6286ZM70.8141 34.7841C70.5768 34.0918 70.2157 33.4857 69.6917 33.0332L68.3845 34.5469C68.5766 34.7128 68.7689 34.9856 68.9222 35.4327L70.8141 34.7841ZM68.4411 32.9878C67.5739 33.6331 66.944 34.5028 66.5414 35.5574L68.4098 36.2708C68.6907 35.535 69.1025 34.9886 69.6351 34.5923L68.4411 32.9878ZM66.5932 35.4435C66.1439 36.286 65.8896 37.1469 65.8896 38.0137H67.8896C67.8896 37.5458 68.026 37.007 68.3579 36.3847L66.5932 35.4435ZM65.8907 38.0591L65.9151 38.5962L67.913 38.5054L67.8886 37.9683L65.8907 38.0591ZM65.9335 38.7469C65.9688 38.9236 65.9873 39.11 65.9873 39.3076H67.9873C67.9873 38.9844 67.957 38.6663 67.8946 38.3547L65.9335 38.7469ZM65.9873 39.3076C65.9873 39.4788 65.9589 39.7599 65.882 40.1753L67.8485 40.5395C67.9343 40.0761 67.9873 39.6572 67.9873 39.3076H65.9873ZM65.8702 40.2579C65.7855 41.1046 65.7432 41.9516 65.7432 42.7988H67.7432C67.7432 42.0184 67.7822 41.2378 67.8603 40.4569L65.8702 40.2579ZM65.7432 42.7988C65.7432 44.0196 65.7998 45.0043 65.9306 45.7144L67.8975 45.352C67.8005 44.8251 67.7432 43.9869 67.7432 42.7988H65.7432ZM65.9654 45.8494C65.9784 45.8885 65.9873 45.9359 65.9873 45.9971H67.9873C67.9873 45.7327 67.9474 45.4708 67.8627 45.217L65.9654 45.8494ZM65.9884 45.9506C65.9794 46.1436 65.9327 46.2046 65.9239 46.2154C65.9165 46.2245 65.8731 46.2774 65.7005 46.3195L66.1745 48.2625C66.6692 48.1419 67.1344 47.8978 67.477 47.4755C67.8181 47.055 67.9626 46.5504 67.9862 46.0435L65.9884 45.9506ZM65.8545 46.2945L65.5615 46.3189L65.7276 48.312L66.0205 48.2876L65.8545 46.2945ZM79.9609 48.1699L79.3479 48.96L79.356 48.9663L79.3642 48.9724L79.9609 48.1699ZM78.9844 41.6025L79.9348 41.9136L79.9389 41.9009L79.9427 41.8882L78.9844 41.6025ZM81.0107 36.7441L80.1342 36.2629L80.1336 36.264L81.0107 36.7441ZM82.8174 35.5723L83.1888 34.6438L83.1615 34.6329L83.1336 34.6236L82.8174 35.5723ZM82.915 38.7461L83.7516 39.2939L83.7556 39.2878L83.7595 39.2816L82.915 38.7461ZM84.1357 45.8994L84.479 46.8388L84.4917 46.8339L84.1357 45.8994ZM87.041 44.3857L86.516 43.5347L86.4975 43.5461L86.4795 43.5583L87.041 44.3857ZM96.0498 37.3057L96.7527 38.017L96.768 38.0019L96.7826 37.9861L96.0498 37.3057ZM96.709 36.7441L97.2497 37.5853L97.2568 37.5808L97.2637 37.5762L96.709 36.7441ZM97.4658 36.5L97.5323 35.5022L97.4991 35.5H97.4658V36.5ZM98.418 37.208L97.4374 37.4041L97.4466 37.4503L97.4601 37.4954L98.418 37.208ZM97.7344 39.1611L98.5219 39.7774L98.527 39.7709L98.532 39.7642L97.7344 39.1611ZM96.7334 40.2109L96.0772 39.4563L96.0671 39.4651L96.0573 39.4741L96.7334 40.2109ZM87.0654 47.3398L86.5611 46.4764L86.5584 46.4779L87.0654 47.3398ZM83.5254 48.7559L83.7075 49.7391L83.7304 49.7349L83.753 49.7296L83.5254 48.7559ZM83.2324 33.0576L83.7469 32.2001L83.7378 32.1947L83.7286 32.1894L83.2324 33.0576ZM82.1582 31.2998H81.1582V31.3206L81.1591 31.3414L82.1582 31.2998ZM82.5488 30.3721L83.2073 31.1246L83.2202 31.1133L83.2328 31.1016L82.5488 30.3721ZM84.3066 30.4453L85.26 30.1434L85.2362 30.0684L85.2011 29.9981L84.3066 30.4453ZM84.7705 31.9102L85.7689 31.9667L85.7793 31.7833L85.7238 31.6083L84.7705 31.9102ZM82.2803 47.8779C81.5497 47.8779 80.9945 47.6923 80.5576 47.3675L79.3642 48.9724C80.197 49.5916 81.1879 49.8779 82.2803 49.8779V47.8779ZM80.5739 47.3798C79.9598 46.9034 79.5449 46.06 79.5449 44.5811H77.5449C77.5449 46.4225 78.074 47.9716 79.3479 48.96L80.5739 47.3798ZM79.5449 44.5811V44.2393H77.5449V44.5811H79.5449ZM79.5449 44.2393C79.5449 43.4915 79.6717 42.7175 79.9348 41.9136L78.034 41.2915C77.7112 42.2779 77.5449 43.2617 77.5449 44.2393H79.5449ZM79.9427 41.8882C80.4272 40.2629 81.0755 38.7086 81.8879 37.2243L80.1336 36.264C79.2533 37.8721 78.5507 39.5568 78.026 41.3169L79.9427 41.8882ZM81.8873 37.2254C82.0861 36.8634 82.2516 36.659 82.3672 36.5555C82.4754 36.4587 82.4821 36.499 82.4023 36.499V34.499C81.8506 34.499 81.3893 34.7468 81.0336 35.0651C80.6854 35.3767 80.3911 35.7948 80.1342 36.2629L81.8873 37.2254ZM82.4023 36.499C82.4072 36.499 82.4382 36.5 82.5012 36.521L83.1336 34.6236C82.9036 34.5469 82.6579 34.499 82.4023 34.499V36.499ZM82.446 36.5007C82.5571 36.5452 82.5671 36.5761 82.553 36.5563C82.5506 36.553 82.5484 36.5493 82.5466 36.5457C82.5449 36.5422 82.5444 36.5403 82.5447 36.5411C82.545 36.5423 82.5498 36.559 82.5498 36.5977H84.5498C84.5498 36.1801 84.4425 35.7608 84.1804 35.3939C83.9222 35.0323 83.5659 34.7946 83.1888 34.6438L82.446 36.5007ZM82.5498 36.5977C82.5498 37.1665 82.3957 37.6978 82.0705 38.2106L83.7595 39.2816C84.2808 38.4597 84.5498 37.5588 84.5498 36.5977H82.5498ZM82.0785 38.1982C80.7658 40.2027 80.1084 42.4281 80.1084 44.8496H82.1084C82.1084 42.8115 82.6554 40.9679 83.7516 39.2939L82.0785 38.1982ZM80.1084 44.8496C80.1084 45.4487 80.2143 46.0797 80.5861 46.5807C80.9993 47.1376 81.609 47.3633 82.2314 47.3633V45.3633C82.1556 45.3633 82.1367 45.3506 82.1499 45.3565C82.1689 45.365 82.1861 45.3808 82.1923 45.389C82.1941 45.3915 82.1718 45.3624 82.1493 45.2718C82.1267 45.1802 82.1084 45.0433 82.1084 44.8496H80.1084ZM82.2314 47.3633C82.8424 47.3633 83.6183 47.1531 84.4789 46.8387L83.7925 44.9601C82.9605 45.2642 82.4668 45.3633 82.2314 45.3633V47.3633ZM84.4917 46.8339C85.5898 46.4156 86.6272 45.8751 87.6025 45.2132L86.4795 43.5583C85.6319 44.1334 84.7324 44.602 83.7797 44.9649L84.4917 46.8339ZM87.5661 45.2368C90.9019 43.1789 93.9645 40.772 96.7527 38.017L95.3469 36.5943C92.6664 39.243 89.7231 41.5561 86.516 43.5347L87.5661 45.2368ZM96.7826 37.9861C96.9454 37.8108 97.1019 37.6804 97.2497 37.5853L96.1682 35.903C95.8604 36.1009 95.5774 36.3448 95.317 36.6252L96.7826 37.9861ZM97.2637 37.5762C97.3651 37.5086 97.4272 37.5 97.4658 37.5V35.5C96.9836 35.5 96.5412 35.6542 96.1543 35.9121L97.2637 37.5762ZM97.3993 37.4978C97.4486 37.5011 97.4589 37.5112 97.4673 37.5181L98.7338 35.9702C98.3842 35.6841 97.9714 35.5315 97.5323 35.5022L97.3993 37.4978ZM97.4673 37.5181C97.4997 37.5446 97.5006 37.5518 97.4889 37.5347C97.4755 37.5151 97.4507 37.4708 97.4374 37.4041L99.3986 37.0119C99.3056 36.5472 99.0223 36.2062 98.7338 35.9702L97.4673 37.5181ZM97.4601 37.4954C97.4785 37.5567 97.488 37.5962 97.4923 37.6177C97.4944 37.628 97.4944 37.6298 97.4938 37.6247C97.4932 37.6202 97.4912 37.6023 97.4912 37.5742H99.4912C99.4912 37.3382 99.4291 37.0982 99.3758 36.9207L97.4601 37.4954ZM97.4912 37.5742C97.4912 37.5649 97.4907 37.642 97.3994 37.8334C97.3117 38.0173 97.164 38.2574 96.9367 38.558L98.532 39.7642C98.8093 39.3975 99.04 39.0395 99.2046 38.6944C99.3656 38.3568 99.4912 37.9741 99.4912 37.5742H97.4912ZM96.9469 38.5448C96.6948 38.8669 96.4056 39.1708 96.0772 39.4563L97.3896 40.9655C97.8099 40.6 98.188 40.2041 98.5219 39.7774L96.9469 38.5448ZM96.0573 39.4741C93.1478 42.1438 89.9827 44.4777 86.5611 46.4764L87.5698 48.2033C91.1143 46.133 94.3945 43.7142 97.4095 40.9478L96.0573 39.4741ZM86.5584 46.4779C85.5388 47.0777 84.453 47.5121 83.2978 47.7821L83.753 49.7296C85.1043 49.4137 86.3785 48.9041 87.5724 48.2018L86.5584 46.4779ZM83.3433 47.7726C82.9555 47.8444 82.6018 47.8779 82.2803 47.8779V49.8779C82.74 49.8779 83.2164 49.8301 83.7075 49.7391L83.3433 47.7726ZM83.7207 32.2041C83.7302 32.2041 83.7391 32.2048 83.747 32.206C83.7548 32.2072 83.7605 32.2086 83.7639 32.2097C83.7708 32.2117 83.7652 32.2111 83.7469 32.2001L82.7179 33.9151C83.0099 34.0903 83.3484 34.2041 83.7207 34.2041V32.2041ZM83.7286 32.1894C83.3411 31.968 83.1754 31.6928 83.1573 31.2582L81.1591 31.3414C81.2061 32.4693 81.7565 33.366 82.7363 33.9259L83.7286 32.1894ZM83.1582 31.2998C83.1582 31.2161 83.1719 31.1763 83.1775 31.163C83.1818 31.1527 83.1877 31.1418 83.2073 31.1246L81.8903 29.6195C81.3836 30.0629 81.1582 30.6622 81.1582 31.2998H83.1582ZM83.2328 31.1016C83.3169 31.0227 83.3766 31.0059 83.4521 31.0059V29.0059C82.8441 29.0059 82.3016 29.2331 81.8649 29.6425L83.2328 31.1016ZM83.4521 31.0059C83.5538 31.0059 83.5629 31.0241 83.5258 31.005C83.5059 30.9948 83.481 30.9779 83.4572 30.9535C83.4334 30.9294 83.4193 30.9066 83.4122 30.8925L85.2011 29.9981C84.8337 29.2633 84.1233 29.0059 83.4521 29.0059V31.0059ZM83.3533 30.7472L83.8172 32.212L85.7238 31.6083L85.26 30.1434L83.3533 30.7472ZM83.7721 31.8536C83.7633 32.0096 83.7423 32.1151 83.7218 32.1817C83.7016 32.2472 83.6862 32.2613 83.6949 32.2506C83.7072 32.2354 83.7306 32.2161 83.7568 32.2049C83.7785 32.1955 83.7734 32.2041 83.7207 32.2041V34.2041C84.2897 34.2041 84.8494 34.0019 85.248 33.5107C85.6105 33.0639 85.7388 32.499 85.7689 31.9667L83.7721 31.8536ZM112.271 44.8984L112.089 45.8818L112.132 45.8898L112.176 45.8939L112.271 44.8984ZM106.606 39.6494L105.617 39.7937L105.625 39.8504L105.64 39.9057L106.606 39.6494ZM106.167 37.7207L107.109 37.3863L106.539 35.7775L105.414 37.0622L106.167 37.7207ZM104.849 39.3564L104.062 38.7393L104.055 38.7483L104.849 39.3564ZM97.5977 44.4102L97.058 45.252L97.067 45.2578L97.0762 45.2634L97.5977 44.4102ZM97.1582 40.04L96.2584 39.6037L96.2557 39.6093L97.1582 40.04ZM106.509 32.0078L106.308 31.0282L106.288 31.0323L106.268 31.0372L106.509 32.0078ZM107.974 31.0557L107.163 30.4702L107.154 30.4824L107.146 30.4948L107.974 31.0557ZM109.707 30.2744L109.301 31.1882L109.304 31.1897L109.707 30.2744ZM110.195 31.959L109.254 31.6226L109.246 31.6436L109.24 31.6649L110.195 31.959ZM110.244 33.3506L109.316 33.722L110.244 33.3506ZM109.658 34.6934L109.264 33.7742L109.259 33.7763L109.658 34.6934ZM108.999 35.4746L109.961 35.7493L109.974 35.702L109.983 35.6535L108.999 35.4746ZM109.17 39.9668L108.235 40.322L108.24 40.3346L108.245 40.3471L109.17 39.9668ZM115.908 42.2861L115.703 41.3073L115.693 41.3094L115.683 41.3117L115.908 42.2861ZM126.943 38.0869L127.44 38.9547L127.447 38.9511L127.453 38.9474L126.943 38.0869ZM130.142 37.4521L129.296 37.9861L129.298 37.989L130.142 37.4521ZM126.528 40.9434L126.99 41.8307L127 41.8249L126.528 40.9434ZM114.81 44.8252L114.969 45.8124L114.97 45.8123L114.81 44.8252ZM100.039 41.334L99.3256 40.6333L99.2833 40.6764L99.2464 40.7243L100.039 41.334ZM104.849 35.4014L105.682 35.9546L105.755 35.8438L105.797 35.7176L104.849 35.4014ZM104.873 35.3281L105.822 35.6444L105.873 35.4904V35.3281H104.873ZM104.58 35.1084L104.896 34.1597L104.461 34.0147L104.067 34.2498L104.58 35.1084ZM99.4775 40.5771L100.354 41.0591L100.359 41.0491L100.364 41.0391L99.4775 40.5771ZM113.296 43.9473C112.986 43.9473 112.676 43.9325 112.365 43.9029L112.176 45.8939C112.549 45.9295 112.922 45.9473 113.296 45.9473V43.9473ZM112.452 43.9151C111.107 43.6664 110.069 43.1617 109.288 42.4377C108.507 41.7136 107.924 40.7172 107.573 39.3931L105.64 39.9057C106.07 41.5276 106.822 42.879 107.929 43.9046C109.035 44.9302 110.44 45.5771 112.089 45.8818L112.452 43.9151ZM107.596 39.5051C107.477 38.6865 107.318 37.9741 107.109 37.3863L105.225 38.0551C105.374 38.4765 105.508 39.0498 105.617 39.7937L107.596 39.5051ZM105.414 37.0622C105.166 37.3463 104.71 37.913 104.062 38.7393L105.635 39.9736C106.289 39.1397 106.712 38.616 106.92 38.3792L105.414 37.0622ZM104.055 38.7483C102.716 40.4964 101.563 41.7642 100.595 42.5855C99.5914 43.4365 98.9362 43.6787 98.5742 43.6787V45.6787C99.6771 45.6787 100.8 45.0339 101.888 44.1107C103.012 43.158 104.264 41.7646 105.642 39.9646L104.055 38.7483ZM98.5742 43.6787C98.3919 43.6787 98.2482 43.6357 98.1191 43.5569L97.0762 45.2634C97.5331 45.5426 98.0404 45.6787 98.5742 45.6787V43.6787ZM98.1373 43.5683C97.8783 43.4022 97.6455 43.0837 97.6455 42.3105H95.6455C95.6455 43.5231 96.0475 44.6043 97.058 45.252L98.1373 43.5683ZM97.6455 42.3105C97.6455 41.6613 97.7834 41.0517 98.0607 40.4708L96.2557 39.6093C95.8494 40.4607 95.6455 41.3647 95.6455 42.3105H97.6455ZM98.058 40.4764C100.047 36.3751 102.943 33.9225 106.75 32.9784L106.268 31.0372C101.806 32.1439 98.4687 35.0461 96.2584 39.6037L98.058 40.4764ZM106.71 32.9874C107.582 32.8084 108.303 32.3518 108.802 31.6165L107.146 30.4948C106.96 30.7687 106.705 30.9468 106.308 31.0282L106.71 32.9874ZM108.784 31.6412C108.952 31.4088 109.086 31.2848 109.176 31.2237C109.258 31.1684 109.283 31.1768 109.268 31.1768V29.1768C108.344 29.1768 107.653 29.7923 107.163 30.4702L108.784 31.6412ZM109.268 31.1768C109.266 31.1768 109.267 31.1765 109.27 31.1774C109.274 31.1782 109.284 31.1809 109.301 31.1882L110.113 29.3606C109.851 29.2441 109.567 29.1768 109.268 29.1768V31.1768ZM109.304 31.1897C109.326 31.1994 109.33 31.2045 109.325 31.1999C109.319 31.1946 109.311 31.1859 109.306 31.1765C109.293 31.1563 109.317 31.1799 109.317 31.2998H111.317C111.317 30.9151 111.24 30.5156 111.024 30.1536C110.804 29.783 110.48 29.5221 110.11 29.3591L109.304 31.1897ZM109.317 31.2998C109.317 31.3816 109.302 31.4875 109.254 31.6226L111.137 32.2953C111.252 31.9748 111.317 31.6412 111.317 31.2998H109.317ZM109.24 31.6649C109.144 31.9745 109.098 32.2936 109.098 32.6182H111.098C111.098 32.487 111.116 32.3666 111.151 32.2531L109.24 31.6649ZM109.098 32.6182C109.098 32.999 109.174 33.3689 109.316 33.722L111.173 32.9792C111.119 32.844 111.098 32.7256 111.098 32.6182H109.098ZM109.316 33.722C109.343 33.7893 109.342 33.8176 109.342 33.8145H111.342C111.342 33.5184 111.276 33.2374 111.173 32.9792L109.316 33.722ZM109.342 33.8145C109.342 33.8146 109.342 33.8104 109.343 33.8027C109.344 33.7948 109.346 33.7846 109.35 33.7729C109.359 33.7475 109.371 33.7267 109.382 33.7132C109.391 33.7009 109.393 33.7027 109.376 33.7148C109.358 33.7274 109.324 33.7488 109.264 33.7742L110.052 35.6125C110.385 35.4698 110.713 35.2585 110.96 34.9411C111.218 34.6094 111.342 34.2196 111.342 33.8145H109.342ZM109.259 33.7763C108.623 34.0531 108.148 34.5652 108.015 35.2957L109.983 35.6535C109.985 35.641 109.987 35.6386 109.985 35.6427C109.983 35.6471 109.98 35.6521 109.977 35.6556C109.97 35.6641 109.983 35.6425 110.057 35.6104L109.259 33.7763ZM108.037 35.1999C107.818 35.967 107.706 36.7349 107.706 37.501H109.706C109.706 36.9324 109.789 36.3494 109.961 35.7493L108.037 35.1999ZM107.706 37.501C107.706 38.4583 107.885 39.4004 108.235 40.322L110.105 39.6116C109.836 38.9056 109.706 38.2038 109.706 37.501H107.706ZM108.245 40.3471C108.671 41.3832 109.326 42.2136 110.229 42.7751C111.124 43.3321 112.19 43.5791 113.369 43.5791V41.5791C112.465 41.5791 111.79 41.3907 111.285 41.0769C110.788 40.7677 110.385 40.2919 110.095 39.5865L108.245 40.3471ZM113.369 43.5791C114.293 43.5791 115.215 43.4724 116.133 43.2605L115.683 41.3117C114.909 41.4905 114.138 41.5791 113.369 41.5791V43.5791ZM116.113 43.2649C120.106 42.4296 123.883 40.9922 127.44 38.9547L126.446 37.2192C123.07 39.153 119.49 40.5151 115.703 41.3073L116.113 43.2649ZM127.453 38.9474C128.058 38.5888 128.533 38.333 128.884 38.1701C129.06 38.0885 129.189 38.0374 129.279 38.0083C129.383 37.9747 129.38 37.9883 129.312 37.9883V35.9883C129.072 35.9883 128.842 36.0477 128.663 36.1056C128.47 36.168 128.261 36.2543 128.042 36.3558C127.604 36.559 127.065 36.8526 126.434 37.2264L127.453 38.9474ZM129.312 37.9883C129.329 37.9883 129.333 37.9901 129.328 37.9889C129.326 37.9883 129.322 37.9871 129.316 37.985C129.311 37.983 129.305 37.9803 129.3 37.9772C129.294 37.974 129.289 37.9708 129.286 37.968C129.282 37.9651 129.28 37.9631 129.279 37.9624C129.278 37.9611 129.284 37.9672 129.296 37.9861L130.987 36.9182C130.613 36.3264 130.022 35.9883 129.312 35.9883V37.9883ZM129.298 37.989C129.319 38.0214 129.323 38.0352 129.321 38.0308C129.32 38.0283 129.318 38.0211 129.316 38.0095C129.314 37.9979 129.312 37.9827 129.312 37.9648H131.312C131.312 37.5621 131.171 37.2068 130.985 36.9153L129.298 37.989ZM129.312 37.9648C129.312 37.8013 129.385 37.7666 129.286 37.8955C129.198 38.009 129.031 38.1773 128.748 38.3998C128.186 38.8425 127.299 39.3961 126.056 40.0618L127 41.8249C128.28 41.1397 129.286 40.5215 129.985 39.9713C130.333 39.6974 130.639 39.414 130.866 39.1206C131.082 38.8427 131.312 38.4458 131.312 37.9648H129.312ZM126.067 40.0561C122.467 41.9275 118.663 43.1878 114.65 43.8381L114.97 45.8123C119.192 45.128 123.2 43.8004 126.99 41.8306L126.067 40.0561ZM114.65 43.838C114.198 43.911 113.746 43.9473 113.296 43.9473V45.9473C113.854 45.9473 114.412 45.9022 114.969 45.8124L114.65 43.838ZM99.5752 42.6514C100.213 42.6514 100.627 42.2098 100.832 41.9437L99.2464 40.7243C99.2043 40.779 99.1985 40.7726 99.2363 40.7467C99.2791 40.7175 99.3973 40.6514 99.5752 40.6514V42.6514ZM100.753 42.0347C102.587 40.1664 104.231 38.1395 105.682 35.9546L104.016 34.8481C102.635 36.9276 101.071 38.8557 99.3256 40.6333L100.753 42.0347ZM105.797 35.7176L105.822 35.6444L103.924 35.0119L103.9 35.0851L105.797 35.7176ZM105.873 35.3281C105.873 34.8391 105.57 34.5398 105.4 34.4122C105.226 34.2818 105.036 34.2063 104.896 34.1597L104.264 36.0571C104.319 36.0756 104.276 36.0693 104.2 36.0122C104.127 35.9578 103.873 35.7357 103.873 35.3281H105.873ZM104.067 34.2498C101.721 35.6508 99.8933 37.6141 98.5906 40.1152L100.364 41.0391C101.503 38.8527 103.077 37.1702 105.093 35.967L104.067 34.2498ZM98.6013 40.0952C98.4021 40.4575 98.209 40.902 98.209 41.3584H100.209C100.209 41.4065 100.199 41.4067 100.222 41.3417C100.243 41.2806 100.283 41.1877 100.354 41.0591L98.6013 40.0952ZM98.209 41.3584C98.209 41.6768 98.3195 42.0739 98.6758 42.359C98.9895 42.61 99.3463 42.6514 99.5752 42.6514V40.6514C99.5776 40.6514 99.6143 40.6513 99.6726 40.6668C99.7329 40.6829 99.8272 40.7188 99.9252 40.7973C100.159 40.9846 100.209 41.2353 100.209 41.3584H98.209ZM126.733 50.6113L125.865 51.1075L125.885 51.1414L125.906 51.1736L126.733 50.6113ZM126.831 48.7559L127.767 49.107L127.772 49.0941L127.777 49.0811L126.831 48.7559ZM133.374 30.3477L132.441 29.9877L132.438 29.9969L133.374 30.3477ZM138.452 18.043L137.538 17.6368L137.537 17.6402L138.452 18.043ZM139.16 16.7734L138.366 16.166L138.349 16.1881L138.333 16.2111L139.16 16.7734ZM140.747 19.2637L141.472 19.9524L141.478 19.946L141.484 19.9394L140.747 19.2637ZM140.088 20.3379L141.019 20.7024L141.028 20.6785L141.037 20.6541L140.088 20.3379ZM134.546 34.498L135.432 34.9621L135.457 34.9135L135.477 34.8625L134.546 34.498ZM134.277 35.499H133.277V35.5323L133.28 35.5655L134.277 35.499ZM134.302 35.8652L133.304 35.9318L133.443 38.0187L134.98 36.6L134.302 35.8652ZM135.791 34.5469L136.424 35.3208L136.432 35.3141L136.441 35.3072L135.791 34.5469ZM139.502 34.8154L140.465 34.547L140.457 34.5174L140.447 34.4883L139.502 34.8154ZM139.917 37.1836H138.917V37.2176L138.919 37.2516L139.917 37.1836ZM140.332 39.2832L139.383 39.5994L139.388 39.6122L139.392 39.6249L140.332 39.2832ZM142.383 40.7236V41.7236H142.408L142.433 41.7224L142.383 40.7236ZM147.705 38.0869L147.065 37.3187L147.058 37.3247L147.051 37.3308L147.705 38.0869ZM149.951 39.332L150.698 39.9969L150.707 39.987L149.951 39.332ZM144.189 43.0186L144.474 43.9771L144.479 43.9758L144.189 43.0186ZM138.159 40.6748L139.078 40.2798L139.075 40.2733L138.159 40.6748ZM136.67 37.2324L137.414 37.9002L137.422 37.8918L137.429 37.8832L136.67 37.2324ZM134.546 39.7471L135.347 40.3449L135.349 40.3434L134.546 39.7471ZM129.37 49.3418L128.43 49.0004L128.423 49.0194L128.417 49.0386L129.37 49.3418ZM128.247 51.124L127.977 50.1611L127.954 50.1676L127.931 50.1753L128.247 51.124ZM127.808 50.2217C127.743 50.2217 127.677 50.2204 127.56 50.049L125.906 51.1736C126.343 51.816 126.993 52.2217 127.808 52.2217V50.2217ZM127.602 50.1152C127.537 50.0025 127.538 49.9525 127.538 49.9521H125.538C125.538 50.3749 125.669 50.7644 125.865 51.1075L127.602 50.1152ZM127.538 49.9521C127.538 49.8639 127.58 49.6055 127.767 49.107L125.895 48.4047C125.691 48.9478 125.538 49.487 125.538 49.9521H127.538ZM127.777 49.0811C130.412 41.4189 132.59 35.2924 134.31 30.6984L132.438 29.9969C130.708 34.6151 128.523 40.7607 125.885 48.4306L127.777 49.0811ZM134.307 30.7076C135.896 26.5879 137.583 22.5006 139.367 18.4457L137.537 17.6402C135.74 21.7233 134.042 25.8391 132.441 29.9877L134.307 30.7076ZM139.366 18.4491C139.536 18.0655 139.743 17.6944 139.987 17.3357L138.333 16.2111C138.024 16.6662 137.758 17.1416 137.538 17.6368L139.366 18.4491ZM139.955 17.3809C139.966 17.366 139.973 17.36 139.974 17.359C139.975 17.3583 139.973 17.3599 139.969 17.3617C139.966 17.3634 139.965 17.363 139.97 17.362C139.976 17.3608 139.99 17.3584 140.015 17.3584V15.3584C139.355 15.3584 138.773 15.6339 138.366 16.166L139.955 17.3809ZM140.015 17.3584C140.122 17.3584 140.17 17.3755 140.18 17.3801C140.185 17.3821 140.181 17.3794 140.181 17.3801C140.194 17.3967 140.284 17.5368 140.284 17.9697H142.284C142.284 17.3284 142.162 16.6629 141.752 16.1424C141.306 15.5764 140.664 15.3584 140.015 15.3584V17.3584ZM140.284 17.9697C140.284 18.1603 140.221 18.3574 140.01 18.5879L141.484 19.9394C141.989 19.3887 142.284 18.7231 142.284 17.9697H140.284ZM140.022 18.5749C139.621 18.997 139.32 19.4798 139.139 20.0217L141.037 20.6541C141.116 20.4148 141.255 20.1814 141.472 19.9524L140.022 18.5749ZM139.157 19.9734L133.615 34.1336L135.477 34.8625L141.019 20.7024L139.157 19.9734ZM133.66 34.034C133.42 34.4926 133.277 34.9845 133.277 35.499H135.277C135.277 35.3626 135.314 35.1871 135.432 34.9621L133.66 34.034ZM133.28 35.5655L133.304 35.9318L135.3 35.7987L135.275 35.4325L133.28 35.5655ZM134.98 36.6C135.61 36.0182 136.089 35.5947 136.424 35.3208L135.158 33.7729C134.776 34.085 134.263 34.5404 133.623 35.1304L134.98 36.6ZM136.441 35.3072C137.158 34.6946 137.621 34.5459 137.866 34.5459V32.5459C136.907 32.5459 135.987 33.0645 135.142 33.7865L136.441 35.3072ZM137.866 34.5459C138.079 34.5459 138.189 34.5984 138.26 34.6533C138.34 34.7153 138.455 34.8487 138.557 35.1425L140.447 34.4883C140.256 33.9358 139.952 33.4344 139.486 33.0733C139.012 32.705 138.451 32.5459 137.866 32.5459V34.5459ZM138.539 35.0839C138.806 36.0448 138.917 36.732 138.917 37.1836H140.917C140.917 36.4633 140.751 35.5718 140.465 34.547L138.539 35.0839ZM138.919 37.2516C138.974 38.0526 139.129 38.8358 139.383 39.5994L141.281 38.967C141.08 38.3634 140.958 37.7469 140.915 37.1156L138.919 37.2516ZM139.392 39.6249C139.624 40.2616 139.973 40.8547 140.524 41.2316L141.654 39.5809C141.586 39.5347 141.431 39.3791 141.272 38.9415L139.392 39.6249ZM140.524 41.2316C141.062 41.5993 141.719 41.7236 142.383 41.7236V39.7236C141.94 39.7236 141.735 39.6364 141.654 39.5809L140.524 41.2316ZM142.433 41.7224C144.365 41.6248 146.347 40.5853 148.36 38.843L147.051 37.3308C145.19 38.9413 143.624 39.6597 142.332 39.7249L142.433 41.7224ZM148.345 38.8551C148.768 38.5027 149.095 38.2618 149.335 38.1142C149.454 38.0405 149.533 38.0017 149.578 37.9837C149.632 37.9616 149.591 37.9883 149.487 37.9883V35.9883C149.229 35.9883 148.998 36.0608 148.826 36.1302C148.645 36.2038 148.463 36.3022 148.285 36.4117C147.93 36.6303 147.521 36.9387 147.065 37.3187L148.345 38.8551ZM149.487 37.9883C149.461 37.9883 149.448 37.9817 149.456 37.9852C149.467 37.99 149.504 38.0085 149.565 38.0614L150.875 36.55C150.508 36.2325 150.041 35.9883 149.487 35.9883V37.9883ZM149.565 38.0614C149.58 38.0747 149.587 38.0834 149.59 38.0865C149.592 38.0894 149.591 38.0885 149.589 38.0841C149.587 38.0797 149.586 38.0756 149.585 38.0737C149.585 38.0719 149.586 38.0757 149.586 38.0869H151.586C151.586 37.4732 151.327 36.9418 150.875 36.55L149.565 38.0614ZM149.586 38.0869C149.586 38.0532 149.595 38.085 149.536 38.2004C149.478 38.314 149.373 38.4725 149.195 38.6771L150.707 39.987C151.165 39.4585 151.586 38.8068 151.586 38.0869H149.586ZM149.204 38.6672C147.747 40.3042 145.985 41.4314 143.9 42.0613L144.479 43.9758C146.919 43.2386 148.997 41.9081 150.698 39.9968L149.204 38.6672ZM143.904 42.06C143.393 42.212 142.879 42.2871 142.358 42.2871V44.2871C143.075 44.2871 143.781 44.1832 144.474 43.9771L143.904 42.06ZM142.358 42.2871C141.474 42.2871 140.805 42.1002 140.299 41.7849C139.797 41.4731 139.384 40.992 139.078 40.2799L137.24 41.0698C137.683 42.0992 138.344 42.9242 139.242 43.4831C140.135 44.0387 141.192 44.2871 142.358 44.2871V42.2871ZM139.075 40.2733C138.591 39.1698 138.378 38.2348 138.378 37.4521H136.378C136.378 38.5901 136.685 39.8035 137.243 41.0763L139.075 40.2733ZM138.378 37.4521C138.378 37.1982 138.325 36.8209 138.045 36.5007C137.743 36.1549 137.342 36.0615 137.036 36.0615V38.0615C136.959 38.0615 136.728 38.0332 136.54 37.8177C136.457 37.7231 136.416 37.6278 136.397 37.5612C136.378 37.4978 136.378 37.4567 136.378 37.4521H138.378ZM137.036 36.0615C136.59 36.0615 136.193 36.2523 135.911 36.5816L137.429 37.8832C137.396 37.922 137.34 37.9722 137.258 38.0104C137.175 38.049 137.096 38.0615 137.036 38.0615V36.0615ZM135.926 36.5647C134.929 37.6752 134.195 38.542 133.743 39.1507L135.349 40.3434C135.743 39.8128 136.425 39.0031 137.414 37.9002L135.926 36.5647ZM133.744 39.1492C131.489 42.1734 129.717 45.458 128.43 49.0004L130.31 49.6832C131.53 46.3246 133.209 43.2127 135.347 40.3449L133.744 39.1492ZM128.417 49.0386C128.259 49.5373 128.11 49.8645 127.987 50.0599C127.85 50.2767 127.827 50.2031 127.977 50.1611L128.517 52.087C129.074 51.931 129.441 51.5034 129.679 51.1261C129.93 50.7275 130.14 50.2205 130.323 49.645L128.417 49.0386ZM127.931 50.1753C127.855 50.2007 127.804 50.2144 127.774 50.2211C127.759 50.2243 127.755 50.2248 127.758 50.2243C127.76 50.224 127.778 50.2217 127.808 50.2217V52.2217C128.077 52.2217 128.353 52.1427 128.563 52.0727L127.931 50.1753ZM172.139 48.4385L171.244 48.8857L171.256 48.9086L171.268 48.9308L172.139 48.4385ZM170.845 43.3115L169.845 43.33L169.845 43.3388L170.845 43.3115ZM170.82 41.9932H169.82V42.0024L169.82 42.0117L170.82 41.9932ZM173.457 28.8828L174.398 29.2205L174.398 29.2204L173.457 28.8828ZM178.853 16.2852L179.751 16.7234L179.757 16.7122L178.853 16.2852ZM180.635 12.916L179.787 12.386L179.78 12.3966L179.774 12.4073L180.635 12.916ZM182.393 12.5498L181.793 13.3498L182.393 12.5498ZM182.783 13.3311L183.775 13.4551L183.783 13.3933V13.3311H182.783ZM182.759 13.5264L181.767 13.4023L181.765 13.4133L181.764 13.4243L182.759 13.5264ZM182.1 15.2842L182.88 15.9089L182.901 15.8831L182.92 15.856L182.1 15.2842ZM181.367 16.4805L182.266 16.9184L182.268 16.9152L181.367 16.4805ZM175.679 29.9326L174.738 29.5941L174.734 29.6042L175.679 29.9326ZM174.189 47.0469L175.119 46.678L175.115 46.6693L175.112 46.6607L174.189 47.0469ZM177.314 48.3408L177.673 49.2742L177.682 49.2708L177.691 49.2672L177.314 48.3408ZM185.054 41.4072L184.261 40.7972L184.254 40.8065L184.247 40.816L185.054 41.4072ZM193.33 28.4434L194.217 28.9045L194.222 28.8959L194.226 28.8872L193.33 28.4434ZM195.527 23.1943L194.588 22.8505L194.585 22.8591L194.582 22.8678L195.527 23.1943ZM196.87 19.752L195.954 19.3503L195.95 19.3597L195.946 19.3692L196.87 19.752ZM198.945 14.0635L197.997 13.7472L197.991 13.7642L197.986 13.7813L198.945 14.0635ZM199.946 12.5986L200.584 13.369L200.591 13.3635L200.597 13.3579L199.946 12.5986ZM201.802 13.2334L202.794 13.1094L202.786 13.0433L202.769 12.9789L201.802 13.2334ZM201.704 14.4297L200.75 14.1314L200.741 14.1591L200.734 14.1872L201.704 14.4297ZM199.8 20.167L200.719 20.5609L200.723 20.5522L199.8 20.167ZM197.993 24.2441L198.9 24.6654L198.902 24.6604L197.993 24.2441ZM193.037 41.5537L194.022 41.7261L194.024 41.7131L194.026 41.7L193.037 41.5537ZM193.354 46.8027L192.395 47.0849L192.397 47.0927L193.354 46.8027ZM193.892 47.7549L193.444 48.6493L193.475 48.6647L193.507 48.678L193.892 47.7549ZM196.602 47.0225L196.082 46.1677L196.072 46.1745L196.602 47.0225ZM202.485 42.1885L201.758 41.5017L201.753 41.5078L201.747 41.5139L202.485 42.1885ZM209.395 32.3984L208.513 31.9266L208.508 31.9356L208.503 31.9448L209.395 32.3984ZM210.518 27.5645L211.158 26.7962L211.144 26.7848L211.13 26.774L210.518 27.5645ZM208.003 20.8018L208.976 21.0308L208.978 21.0239L208.003 20.8018ZM211.201 14.5273L211.923 15.2197L211.931 15.2115L211.938 15.2031L211.201 14.5273ZM213.105 13.1357L212.746 12.2024L212.714 12.2149L212.683 12.2296L213.105 13.1357ZM216.353 14.0391L215.559 14.6471L215.563 14.653L215.568 14.6587L216.353 14.0391ZM217.158 16.1631L218.158 16.1308L218.157 16.1164L218.156 16.102L217.158 16.1631ZM217.183 16.9199H218.183V16.9038L218.182 16.8877L217.183 16.9199ZM214.79 26.6367L215.719 27.0081L215.727 26.9878L215.734 26.9671L214.79 26.6367ZM215.254 27.54L215.589 26.598L215.567 26.5902L215.545 26.5834L215.254 27.54ZM221.406 27.9062L221.282 26.914L221.261 26.9167L221.239 26.9203L221.406 27.9062ZM222.334 27.7598L222.17 26.7734L222.092 26.7863L222.018 26.8111L222.334 27.7598ZM223.628 27.9551L224.283 27.1994L224.261 27.1803L224.238 27.1625L223.628 27.9551ZM223.433 29.5664L223.87 30.4655L223.898 30.4521L223.925 30.437L223.433 29.5664ZM216.011 30.1279L215.76 31.0959L215.77 31.0985L215.78 31.1009L216.011 30.1279ZM213.13 30.4697L212.22 30.054L212.217 30.0614L212.214 30.0689L213.13 30.4697ZM212.959 30.8604L213.863 31.2888L213.869 31.2751L213.875 31.2612L212.959 30.8604ZM198.604 48.5361L198.046 47.7059L198.042 47.7084L198.604 48.5361ZM195.479 50.0254L195.721 50.9955L195.746 50.9894L195.77 50.9821L195.479 50.0254ZM191.23 48.1699L190.333 48.6108L190.334 48.6128L191.23 48.1699ZM190.449 45.2646L189.451 45.327L189.451 45.329L190.449 45.2646ZM191.035 38.5752L190.077 38.2878L190.07 38.3112L190.064 38.3348L191.035 38.5752ZM190.938 37.3545L191.832 36.9073L191.087 35.4166L190.122 36.7757L190.938 37.3545ZM189.863 38.8682L189.048 38.2894L189.04 38.301L189.863 38.8682ZM184.785 45.5088L185.532 46.1734L185.534 46.1718L184.785 45.5088ZM177.412 50.6846L177.639 51.6584L177.655 51.6547L177.671 51.6504L177.412 50.6846ZM212.202 25.7334V26.7334H212.292L212.381 26.7173L212.202 25.7334ZM212.593 25.3672L211.661 25.0039L211.659 25.0082L212.593 25.3672ZM214.644 17.3838L215.635 17.5136L215.639 17.4844L215.641 17.455L214.644 17.3838ZM214.668 17.042L215.665 17.1132L215.668 17.0777V17.042H214.668ZM213.545 15.626L212.905 14.8578L212.89 14.8704L212.875 14.8837L213.545 15.626ZM210.42 22.1689L209.424 22.079L209.42 22.1239V22.1689H210.42ZM211.494 25.2695L210.743 25.9302L210.749 25.9363L211.494 25.2695ZM176.021 49.8555C174.748 49.8555 173.766 49.2835 173.009 47.9461L171.268 48.9308C172.335 50.8161 173.94 51.8555 176.021 51.8555V49.8555ZM173.033 47.9913C172.284 46.4921 171.889 44.9262 171.844 43.2843L169.845 43.3388C169.898 45.2775 170.366 47.1296 171.244 48.8857L173.033 47.9913ZM171.845 43.293L171.82 41.9746L169.82 42.0117L169.845 43.33L171.845 43.293ZM171.82 41.9932C171.82 38.2999 172.666 34.0472 174.398 29.2205L172.516 28.5451C170.732 33.5166 169.82 38.0041 169.82 41.9932H171.82ZM174.398 29.2204C175.767 25.404 177.55 21.2388 179.751 16.7233L177.954 15.847C175.728 20.4135 173.914 24.6467 172.516 28.5452L174.398 29.2204ZM179.757 16.7122C180.298 15.5671 180.877 14.4714 181.496 13.4247L179.774 12.4073C179.123 13.5091 178.514 14.6594 177.948 15.8581L179.757 16.7122ZM181.483 13.446C181.522 13.3825 181.551 13.3654 181.563 13.3589C181.578 13.3511 181.624 13.3301 181.733 13.3301V11.3301C180.925 11.3301 180.227 11.6824 179.787 12.386L181.483 13.446ZM181.733 13.3301C181.754 13.3301 181.763 13.3329 181.765 13.3337C181.768 13.3345 181.776 13.3375 181.793 13.3498L182.993 11.7498C182.624 11.4735 182.194 11.3301 181.733 11.3301V13.3301ZM181.793 13.3498C181.804 13.3585 181.807 13.3622 181.804 13.3593C181.803 13.3579 181.801 13.3554 181.799 13.3517C181.796 13.348 181.794 13.3436 181.791 13.3388C181.789 13.334 181.787 13.3293 181.785 13.3251C181.784 13.3209 181.783 13.3178 181.783 13.3161C181.782 13.3124 181.783 13.3165 181.783 13.3311H183.783C183.783 12.6908 183.505 12.134 182.993 11.7498L181.793 13.3498ZM181.791 13.207L181.767 13.4023L183.751 13.6504L183.775 13.4551L181.791 13.207ZM181.764 13.4243C181.717 13.8857 181.559 14.3108 181.279 14.7124L182.92 15.856C183.389 15.1834 183.671 14.4365 183.754 13.6284L181.764 13.4243ZM181.319 14.6595C181.001 15.0563 180.719 15.5226 180.467 16.0457L182.268 16.9152C182.471 16.4944 182.677 16.1631 182.88 15.9089L181.319 14.6595ZM180.468 16.0425C178.288 20.5173 176.378 25.0346 174.738 29.5941L176.62 30.2711C178.235 25.7812 180.117 21.3303 182.266 16.9184L180.468 16.0425ZM174.734 29.6042C173.131 34.2153 172.311 38.366 172.311 42.042H174.311C174.311 38.6541 175.069 34.7319 176.623 30.261L174.734 29.6042ZM172.311 42.042C172.311 44.0763 172.618 45.8822 173.267 47.433L175.112 46.6607C174.589 45.412 174.311 43.8814 174.311 42.042H172.311ZM173.26 47.4157C173.508 48.0398 173.862 48.5903 174.364 48.9861C174.881 49.3927 175.49 49.585 176.143 49.585V47.585C175.9 47.585 175.736 47.5208 175.602 47.4148C175.453 47.2979 175.278 47.0794 175.119 46.678L173.26 47.4157ZM176.143 49.585C176.651 49.585 177.165 49.4697 177.673 49.2742L176.955 47.4075C176.618 47.5374 176.35 47.585 176.143 47.585V49.585ZM177.691 49.2672C180.463 48.1407 183.177 45.6592 185.86 41.9984L184.247 40.816C181.657 44.3492 179.212 46.4901 176.938 47.4144L177.691 49.2672ZM185.846 42.0172C189.039 37.8695 191.83 33.4984 194.217 28.9045L192.443 27.9822C190.11 32.4703 187.383 36.7418 184.261 40.7972L185.846 42.0172ZM194.226 28.8872C195.091 27.1404 195.84 25.3516 196.473 23.5209L194.582 22.8678C193.978 24.6178 193.262 26.3283 192.434 27.9996L194.226 28.8872ZM196.466 23.5382C196.885 22.3957 197.327 21.2612 197.794 20.1347L195.946 19.3692C195.469 20.5214 195.016 21.6818 194.588 22.8505L196.466 23.5382ZM197.786 20.1536C198.617 18.2594 199.323 16.3234 199.905 14.3456L197.986 13.7813C197.428 15.6773 196.751 17.5336 195.954 19.3503L197.786 20.1536ZM199.894 14.3797C200.031 13.9698 200.257 13.6393 200.584 13.369L199.309 11.8282C198.691 12.3392 198.251 12.9853 197.997 13.7472L199.894 14.3797ZM200.597 13.3579C200.639 13.3216 200.665 13.3102 200.672 13.3074C200.677 13.3053 200.677 13.3057 200.679 13.3057V11.3057C200.144 11.3057 199.675 11.5138 199.296 11.8394L200.597 13.3579ZM200.679 13.3057C200.738 13.3057 200.765 13.3134 200.772 13.3155C200.776 13.3169 200.77 13.3151 200.762 13.3086C200.744 13.2932 200.79 13.3174 200.835 13.4879L202.769 12.9789C202.651 12.5309 202.429 12.0912 202.036 11.7666C201.634 11.435 201.154 11.3057 200.679 11.3057V13.3057ZM200.809 13.3574C200.82 13.4421 200.826 13.5387 200.826 13.6484H202.826C202.826 13.4652 202.816 13.2851 202.794 13.1094L200.809 13.3574ZM200.826 13.6484C200.826 13.803 200.802 13.9629 200.75 14.1314L202.659 14.728C202.769 14.3756 202.826 14.0147 202.826 13.6484H200.826ZM200.734 14.1872C200.258 16.0912 199.639 17.956 198.877 19.7818L200.723 20.5522C201.523 18.6345 202.174 16.6744 202.674 14.6722L200.734 14.1872ZM198.881 19.7731C198.298 21.1328 197.699 22.4844 197.084 23.8279L198.902 24.6604C199.524 23.3021 200.13 21.9356 200.719 20.5609L198.881 19.7731ZM197.086 23.8229C194.695 28.9697 193.02 34.8348 192.048 41.4074L194.026 41.7C194.975 35.2844 196.603 29.6097 198.9 24.6654L197.086 23.8229ZM192.052 41.3813C191.929 42.087 191.866 42.7875 191.866 43.4824H193.866C193.866 42.9078 193.918 42.3225 194.022 41.7261L192.052 41.3813ZM191.866 43.4824C191.866 44.6887 192.044 45.8904 192.395 47.0849L194.314 46.5206C194.014 45.5015 193.866 44.4897 193.866 43.4824H191.866ZM192.397 47.0927C192.49 47.3981 192.601 47.688 192.74 47.9349C192.868 48.1628 193.085 48.4697 193.444 48.6493L194.339 46.8605C194.428 46.905 194.476 46.9547 194.491 46.9707C194.505 46.9869 194.501 46.9858 194.482 46.9523C194.442 46.8818 194.382 46.7445 194.312 46.5127L192.397 47.0927ZM193.507 48.678C193.774 48.7894 194.081 48.877 194.404 48.877V46.877C194.423 46.877 194.422 46.8794 194.398 46.8736C194.374 46.8679 194.334 46.8559 194.276 46.8318L193.507 48.678ZM194.404 48.877C195.252 48.877 196.186 48.4615 197.132 47.8705L196.072 46.1745C195.194 46.7228 194.664 46.877 194.404 46.877V48.877ZM197.121 47.8771C199.399 46.4934 201.434 44.8216 203.224 42.863L201.747 41.5139C200.086 43.3314 198.199 44.8822 196.082 46.1678L197.121 47.8771ZM203.212 42.8752C206.06 39.8604 208.419 36.5187 210.286 32.8521L208.503 31.9448C206.724 35.4396 204.477 38.6246 201.758 41.5017L203.212 42.8752ZM210.276 32.8703C210.897 31.7097 211.37 30.787 211.69 30.1093C211.85 29.7717 211.978 29.4808 212.068 29.2442C212.113 29.1262 212.154 29.0085 212.185 28.897C212.211 28.8021 212.25 28.6436 212.25 28.4678H210.25C210.25 28.3693 210.27 28.3194 210.257 28.3643C210.249 28.3927 210.232 28.4461 210.2 28.5306C210.136 28.6989 210.032 28.9379 209.882 29.2555C209.583 29.8879 209.129 30.776 208.513 31.9266L210.276 32.8703ZM212.25 28.4678C212.25 28.0035 211.99 27.6457 211.844 27.4657C211.663 27.243 211.425 27.0185 211.158 26.7962L209.877 28.3327C210.099 28.5173 210.227 28.6468 210.29 28.7253C210.321 28.7637 210.32 28.7686 210.307 28.7428C210.296 28.7209 210.25 28.6221 210.25 28.4678H212.25ZM211.13 26.774C209.533 25.537 208.808 24.0973 208.808 22.4131H206.808C206.808 24.7979 207.888 26.7925 209.905 28.355L211.13 26.774ZM208.808 22.4131C208.808 21.976 208.862 21.5159 208.976 21.0308L207.03 20.5727C206.883 21.1944 206.808 21.8085 206.808 22.4131H208.808ZM208.978 21.0239C209.531 18.5968 210.523 16.6782 211.923 15.2197L210.48 13.835C208.787 15.5992 207.647 17.8635 207.028 20.5796L208.978 21.0239ZM211.938 15.2031C212.385 14.7155 212.913 14.3292 213.528 14.0419L212.683 12.2296C211.833 12.6259 211.091 13.1673 210.464 13.8516L211.938 15.2031ZM213.464 14.0691C213.802 13.9391 214.07 13.8916 214.277 13.8916V11.8916C213.769 11.8916 213.255 12.0068 212.746 12.2024L213.464 14.0691ZM214.277 13.8916C214.698 13.8916 215.118 14.0717 215.559 14.6471L217.146 13.431C216.415 12.4764 215.452 11.8916 214.277 11.8916V13.8916ZM215.568 14.6587C215.928 15.1147 216.124 15.6272 216.16 16.2242L218.156 16.102C218.095 15.1039 217.754 14.2004 217.137 13.4194L215.568 14.6587ZM216.159 16.1953L216.183 16.9522L218.182 16.8877L218.158 16.1308L216.159 16.1953ZM216.183 16.9199C216.183 18.6505 215.444 21.742 213.846 26.3064L215.734 26.9671C217.326 22.4169 218.183 19.0305 218.183 16.9199H216.183ZM213.862 26.2653C213.781 26.4674 213.692 26.7388 213.692 27.0273H215.692C215.692 27.0577 215.69 27.0791 215.688 27.0894C215.687 27.1 215.686 27.1035 215.687 27.099C215.688 27.0946 215.691 27.0848 215.696 27.0689C215.701 27.0532 215.709 27.033 215.719 27.0081L213.862 26.2653ZM213.692 27.0273C213.692 27.9722 214.512 28.3595 214.963 28.4967L215.545 26.5834C215.43 26.5485 215.447 26.5333 215.507 26.5879C215.543 26.6204 215.593 26.6773 215.633 26.7627C215.674 26.8504 215.692 26.9427 215.692 27.0273H213.692ZM214.918 28.4821C216.212 28.9428 217.538 29.1748 218.892 29.1748V27.1748C217.771 27.1748 216.672 26.9836 215.589 26.598L214.918 28.4821ZM218.892 29.1748C219.592 29.1748 220.494 29.0749 221.573 28.8922L221.239 26.9203C220.203 27.0957 219.428 27.1748 218.892 27.1748V29.1748ZM221.53 28.8985C221.795 28.8654 222.015 28.8354 222.185 28.8086C222.325 28.7865 222.51 28.7554 222.65 28.7084L222.018 26.8111C222.055 26.7987 222.067 26.7982 222.025 26.8067C221.992 26.8132 221.943 26.822 221.873 26.833C221.734 26.855 221.538 26.882 221.282 26.914L221.53 28.8985ZM222.498 28.7462C222.64 28.7225 222.78 28.7109 222.92 28.7109V26.7109C222.669 26.7109 222.418 26.7319 222.17 26.7734L222.498 28.7462ZM222.92 28.7109C222.954 28.7109 222.977 28.7158 223.018 28.7477L224.238 27.1625C223.856 26.8689 223.407 26.7109 222.92 26.7109V28.7109ZM222.973 28.7108C223.019 28.7509 223.023 28.7663 223.014 28.7502C223.01 28.7419 223.004 28.7286 223 28.7111C222.996 28.6936 222.994 28.6769 222.994 28.6631H224.994C224.994 28.0447 224.689 27.5514 224.283 27.1994L222.973 28.7108ZM222.994 28.6631C222.994 28.6804 222.992 28.684 222.994 28.6781C222.996 28.6715 222.999 28.6623 223.004 28.6539C223.009 28.6459 223.011 28.6457 223.004 28.6524C222.996 28.6597 222.977 28.6752 222.941 28.6958L223.925 30.437C224.574 30.0697 224.994 29.4564 224.994 28.6631H222.994ZM222.995 28.6673C221.929 29.1862 220.574 29.4697 218.892 29.4697V31.4697C220.79 31.4697 222.462 31.151 223.87 30.4655L222.995 28.6673ZM218.892 29.4697C218.011 29.4697 217.128 29.3654 216.242 29.1549L215.78 31.1009C216.814 31.3462 217.851 31.4697 218.892 31.4697V29.4697ZM216.262 29.1599C215.601 28.9886 215.088 28.8588 214.726 28.7713C214.545 28.7278 214.396 28.6933 214.282 28.669C214.225 28.6571 214.17 28.646 214.12 28.6375C214.094 28.633 213.995 28.6152 213.887 28.6152V30.6152C213.803 30.6152 213.747 30.6028 213.784 30.609C213.796 30.6111 213.823 30.6161 213.867 30.6255C213.954 30.644 214.083 30.6736 214.256 30.7155C214.602 30.7989 215.102 30.9255 215.76 31.0959L216.262 29.1599ZM213.887 28.6152C213.351 28.6152 212.977 28.9278 212.766 29.1658C212.546 29.4145 212.369 29.7293 212.22 30.054L214.039 30.8855C214.093 30.7688 214.14 30.6784 214.181 30.6104C214.223 30.5411 214.251 30.5055 214.263 30.4919C214.276 30.4768 214.257 30.5031 214.2 30.536C214.137 30.5722 214.028 30.6152 213.887 30.6152V28.6152ZM212.214 30.0689L212.043 30.4595L213.875 31.2612L214.046 30.8705L212.214 30.0689ZM212.055 30.4319C208.387 38.1688 203.708 43.9049 198.046 47.7059L199.161 49.3664C205.185 45.3223 210.076 39.2746 213.863 31.2888L212.055 30.4319ZM198.042 47.7084C197.166 48.3025 196.216 48.7558 195.187 49.0687L195.77 50.9821C196.988 50.6114 198.12 50.0718 199.165 49.3638L198.042 47.7084ZM195.236 49.0552C194.844 49.1532 194.503 49.1963 194.209 49.1963V51.1963C194.696 51.1963 195.201 51.1254 195.721 50.9955L195.236 49.0552ZM194.209 49.1963C193.73 49.1963 193.352 49.0768 193.038 48.8629C192.716 48.6439 192.403 48.2867 192.127 47.727L190.334 48.6128C190.725 49.4041 191.242 50.06 191.913 50.5165C192.592 50.9781 193.37 51.1963 194.209 51.1963V49.1963ZM192.128 47.729C191.729 46.9163 191.504 46.0756 191.447 45.2003L189.451 45.329C189.525 46.472 189.821 47.5681 190.333 48.6108L192.128 47.729ZM191.447 45.2023C191.416 44.7022 191.4 44.2021 191.4 43.7021H189.4C189.4 44.2438 189.417 44.7855 189.451 45.327L191.447 45.2023ZM191.4 43.7021C191.4 42.0766 191.602 40.4483 192.006 38.8156L190.064 38.3348C189.622 40.1201 189.4 41.9097 189.4 43.7021H191.4ZM191.993 38.8625C192.079 38.5757 192.108 38.2677 192.108 37.9648H190.108C190.108 38.1503 190.089 38.2492 190.077 38.2878L191.993 38.8625ZM192.108 37.9648C192.108 37.5791 191.988 37.2191 191.832 36.9073L190.043 37.8017C190.077 37.8699 190.094 37.9181 190.103 37.9476C190.111 37.9769 190.108 37.9811 190.108 37.9648H192.108ZM190.122 36.7757L189.048 38.2894L190.679 39.4469L191.753 37.9332L190.122 36.7757ZM189.04 38.301C187.182 40.999 185.514 43.1773 184.037 44.8458L185.534 46.1718C187.083 44.4223 188.801 42.1735 190.687 39.4353L189.04 38.301ZM184.038 44.8442C181.618 47.5652 179.318 49.1375 177.153 49.7188L177.671 51.6504C180.357 50.9295 182.972 49.0514 185.532 46.1734L184.038 44.8442ZM177.185 49.7107C176.761 49.8097 176.374 49.8555 176.021 49.8555V51.8555C176.546 51.8555 177.087 51.7873 177.639 51.6584L177.185 49.7107ZM212.381 26.7173C212.991 26.6064 213.355 26.171 213.526 25.7262L211.659 25.0082C211.659 25.0081 211.661 25.0048 211.664 24.999C211.667 24.9931 211.671 24.9844 211.678 24.9736C211.692 24.9516 211.715 24.9208 211.75 24.8879C211.828 24.8146 211.927 24.767 212.023 24.7495L212.381 26.7173ZM213.524 25.7305C214.563 23.068 215.266 20.3285 215.635 17.5136L213.652 17.2539C213.304 19.9078 212.641 22.4906 211.661 25.0039L213.524 25.7305ZM215.641 17.455L215.665 17.1132L213.671 16.9707L213.646 17.3125L215.641 17.455ZM215.668 17.042C215.668 16.4554 215.618 15.8974 215.454 15.4518C215.37 15.223 215.233 14.959 214.996 14.7448C214.739 14.5111 214.411 14.3818 214.058 14.3818V16.3818C213.908 16.3818 213.758 16.3218 213.653 16.2264C213.569 16.1505 213.559 16.094 213.577 16.1419C213.593 16.1851 213.618 16.2771 213.637 16.4373C213.656 16.594 213.668 16.7938 213.668 17.042H215.668ZM214.058 14.3818C213.558 14.3818 213.16 14.645 212.905 14.8578L214.185 16.3942C214.239 16.3493 214.26 16.3406 214.25 16.3457C214.238 16.351 214.17 16.3818 214.058 16.3818V14.3818ZM212.875 14.8837C210.83 16.7291 209.688 19.1523 209.424 22.079L211.416 22.2589C211.64 19.782 212.581 17.8431 214.215 16.3683L212.875 14.8837ZM209.42 22.1689V22.4863H211.42V22.1689H209.42ZM209.42 22.4863C209.42 23.7818 209.874 24.9419 210.743 25.9302L212.245 24.6089C211.682 23.9695 211.42 23.2742 211.42 22.4863H209.42ZM210.749 25.9363C210.921 26.1284 211.114 26.3122 211.331 26.4539C211.543 26.5928 211.841 26.7334 212.202 26.7334V24.7334C212.286 24.7334 212.349 24.7501 212.385 24.7631C212.42 24.7756 212.434 24.786 212.427 24.781C212.419 24.7762 212.399 24.7616 212.365 24.7309C212.331 24.7007 212.29 24.6588 212.239 24.6027L210.749 25.9363ZM225.835 50.4404V51.4404H225.895L225.955 51.4332L225.835 50.4404ZM224.468 49.8789L225.175 49.1718L225.167 49.1639L225.159 49.1563L224.468 49.8789ZM223.906 48.6094L222.908 48.5523L222.906 48.5808V48.6094H223.906ZM224.59 47.1934L225.252 47.9424L225.26 47.9353L225.268 47.9282L224.59 47.1934ZM226.128 46.5342V45.5342H226.087L226.047 45.5374L226.128 46.5342ZM227.275 46.9736L226.588 47.6996L226.597 47.7084L226.606 47.7169L227.275 46.9736ZM227.788 48.0479L228.788 48.0749L228.789 48.0421L228.787 48.0094L227.788 48.0479ZM227.202 49.6348L226.429 49L226.424 49.0067L226.419 49.0134L227.202 49.6348ZM225.835 49.4404C225.559 49.4404 225.359 49.3556 225.175 49.1718L223.761 50.586C224.326 51.1509 225.037 51.4404 225.835 51.4404V49.4404ZM225.159 49.1563C224.968 48.974 224.906 48.8067 224.906 48.6094H222.906C222.906 49.3886 223.218 50.0677 223.777 50.6015L225.159 49.1563ZM224.905 48.6664C224.922 48.36 225.031 48.1381 225.252 47.9424L223.927 46.4444C223.302 46.9973 222.955 47.7194 222.908 48.5523L224.905 48.6664ZM225.268 47.9282C225.519 47.697 225.818 47.5626 226.209 47.5309L226.047 45.5374C225.234 45.6034 224.507 45.9085 223.912 46.4586L225.268 47.9282ZM226.128 47.5342C226.347 47.5342 226.478 47.5956 226.588 47.6996L227.963 46.2477C227.454 45.7657 226.82 45.5342 226.128 45.5342V47.5342ZM226.606 47.7169C226.739 47.8361 226.783 47.9432 226.789 48.0863L228.787 48.0094C228.76 47.3062 228.463 46.6971 227.944 46.2303L226.606 47.7169ZM226.788 48.0208C226.778 48.406 226.659 48.72 226.429 49L227.975 50.2695C228.494 49.6381 228.766 48.8941 228.788 48.0749L226.788 48.0208ZM226.419 49.0134C226.188 49.3047 225.96 49.418 225.715 49.4477L225.955 51.4332C226.784 51.3327 227.468 50.9088 227.986 50.2562L226.419 49.0134Z" fill="#FF5660"/>
</svg>
